<svg width="24" height="24" viewBox="0 0 24 24" fill="none" xmlns="http://www.w3.org/2000/svg">
<path d="M1 7H6.733L9.37209 17.2326H18.9153L21 9.7907H10.7674" stroke="currentColor" stroke-width="1.2" stroke-linecap="round" stroke-linejoin="round"/>
<path d="M11.6628 20.9535C11.6628 21.4479 11.2619 21.8488 10.7674 21.8488C10.2729 21.8488 9.87207 21.4479 9.87207 20.9535C9.87207 20.459 10.2729 20.0581 10.7674 20.0581C11.2619 20.0581 11.6628 20.459 11.6628 20.9535Z" fill="currentColor" stroke="currentColor"/>
<path d="M18.4535 20.9535C18.4535 21.4479 18.0527 21.8488 17.5582 21.8488C17.0637 21.8488 16.6628 21.4479 16.6628 20.9535C16.6628 20.459 17.0637 20.0581 17.5582 20.0581C18.0527 20.0581 18.4535 20.459 18.4535 20.9535Z" fill="currentColor" stroke="currentColor"/>
<path d="M20.5257 2V4.39149H22.8621V5.45891H20.5257V7.86207H19.3244V5.45891H17V4.39149H19.3244V2H20.5257Z" fill="currentColor"/>
</svg>
