<svg width="24" height="24" viewBox="0 0 24 24" fill="none" xmlns="http://www.w3.org/2000/svg">
<path d="M7.4 4L5 7.2V18.4C5 18.8243 5.16857 19.2313 5.46863 19.5314C5.76869 19.8314 6.17565 20 6.6 20H17.8C18.2243 20 18.6313 19.8314 18.9314 19.5314C19.2314 19.2313 19.4 18.8243 19.4 18.4V7.2L17 4H7.4Z" stroke="currentColor" stroke-width="1.2" stroke-linecap="round" stroke-linejoin="round"/>
<path d="M5 7.20001H19.4" stroke="currentColor" stroke-width="1.2" stroke-linecap="round" stroke-linejoin="round"/>
<path d="M15.4 10.4C15.4 11.2487 15.0629 12.0626 14.4627 12.6627C13.8626 13.2629 13.0487 13.6 12.2 13.6C11.3513 13.6 10.5374 13.2629 9.93726 12.6627C9.33714 12.0626 9 11.2487 9 10.4" stroke="currentColor" stroke-width="1.2" stroke-linecap="round" stroke-linejoin="round"/>
</svg>
