<svg width="24" height="24" viewBox="0 0 24 24" fill="none" xmlns="http://www.w3.org/2000/svg">
<path d="M3 9V8.2002C3 7.08009 3 6.51962 3.21799 6.0918C3.40973 5.71547 3.71547 5.40973 4.0918 5.21799C4.51962 5 5.08009 5 6.2002 5H12.5M3 9H12.5M3 9V15.8002C3 16.9203 3 17.4801 3.21799 17.9079C3.40973 18.2842 3.71547 18.5905 4.0918 18.7822C4.5192 19 5.07899 19 6.19691 19H17.8031C18.921 19 19.48 19 19.9074 18.7822C20.2837 18.5905 20.5905 18.2842 20.7822 17.9079C21 17.4805 21 16.9215 21 15.8036V11M6 15H10M16.5 5L20.5 9M20.5 5L16.5 9" stroke="currentColor" stroke-width="1.4" stroke-linecap="round" stroke-linejoin="round"/>
</svg>
