<svg width="24" height="24" viewBox="0 0 24 24" fill="none" xmlns="http://www.w3.org/2000/svg">
<path fill-rule="evenodd" clip-rule="evenodd" d="M17.4272 14.7295L21.4752 17.4293C21.9988 17.7774 22.1558 18.4758 21.8316 19.0145L20.8137 20.7064C20.5012 21.2385 19.9947 21.6288 19.4006 21.7953C18.89 21.9334 18.3631 22.0022 17.8341 21.9999C15.5358 21.9999 12.1919 20.792 7.70025 16.3004C2.05373 10.6528 1.59516 6.81944 2.20472 4.59828C2.37146 4.00422 2.76167 3.49778 3.29355 3.18507L4.98631 2.16815C5.52487 1.84439 6.22281 2.00149 6.57069 2.52481L9.2703 6.57316C9.60974 7.08707 9.49776 7.77553 9.01299 8.15539L7.4979 9.33428C7.29801 9.48704 7.24114 9.7637 7.3646 9.9829L7.48759 10.2072L7.4876 10.2072C7.89289 10.9495 8.39849 11.8754 10.2625 13.7403C12.1266 15.6051 13.0518 16.1097 13.7953 16.5151L14.0196 16.6387C14.2389 16.7605 14.5143 16.7025 14.6659 16.5027L15.845 14.9865C16.2248 14.5015 16.9134 14.3897 17.4272 14.7295ZM20.2417 20.3654L21.2573 18.6726C21.3981 18.4389 21.3299 18.1358 21.1027 17.985L17.0549 15.2852C16.832 15.1379 16.5333 15.1863 16.3684 15.3965L15.1896 16.912C14.8369 17.3733 14.1988 17.5049 13.6924 17.221L13.4735 17.1003L13.4727 17.0999C12.6919 16.674 11.7204 16.1441 9.78768 14.2116C7.85501 12.2791 7.32511 11.3072 6.89924 10.5261L6.89877 10.5252L6.77843 10.3065C6.49449 9.80009 6.62619 9.16197 7.08737 8.8093L8.60282 7.63041C8.8131 7.46546 8.86153 7.1667 8.71413 6.94378L7.48329 5.0976L6.01682 2.89578C5.86587 2.66868 5.56295 2.60053 5.32927 2.74114L3.63651 3.75673C3.25203 3.98147 2.96934 4.34625 2.84764 4.77465C2.28471 6.82547 2.75093 10.4075 8.17182 15.8288C13.5927 21.2501 17.1748 21.7164 19.2252 21.1534C19.6531 21.0318 20.0174 20.7495 20.2417 20.3654Z" fill="currentColor"/>
<path d="M21.4752 17.4293L21.392 17.5541L21.3922 17.5542L21.4752 17.4293ZM17.4272 14.7295L17.5104 14.6047L17.5099 14.6044L17.4272 14.7295ZM21.8316 19.0145L21.703 18.9372L21.703 18.9372L21.8316 19.0145ZM20.8137 20.7064L20.6852 20.6291L20.6844 20.6304L20.8137 20.7064ZM19.4006 21.7953L19.4397 21.9401L19.4411 21.9397L19.4006 21.7953ZM17.8341 21.9999L17.8348 21.8499H17.8341V21.9999ZM7.70025 16.3004L7.59418 16.4064L7.59419 16.4065L7.70025 16.3004ZM2.20472 4.59828L2.0603 4.55774L2.06007 4.55858L2.20472 4.59828ZM3.29355 3.18507L3.36958 3.31438L3.37079 3.31365L3.29355 3.18507ZM4.98631 2.16815L5.06356 2.29674L5.0636 2.29671L4.98631 2.16815ZM6.57069 2.52481L6.44577 2.60785L6.44589 2.60803L6.57069 2.52481ZM9.2703 6.57316L9.39546 6.49049L9.39509 6.48994L9.2703 6.57316ZM9.01299 8.15539L9.10511 8.27377L9.10551 8.27346L9.01299 8.15539ZM7.4979 9.33428L7.58898 9.45347L7.59001 9.45266L7.4979 9.33428ZM7.3646 9.9829L7.49613 9.91078L7.49529 9.90929L7.3646 9.9829ZM7.48759 10.2072L7.62185 10.1401L7.61912 10.1351L7.48759 10.2072ZM7.4876 10.2072L7.35335 10.2744L7.35595 10.2791L7.4876 10.2072ZM10.2625 13.7403L10.1564 13.8463L10.2625 13.7403ZM13.7953 16.5151L13.8678 16.3837L13.8671 16.3834L13.7953 16.5151ZM14.0196 16.6387L14.0925 16.5076L14.0921 16.5074L14.0196 16.6387ZM14.6659 16.5027L14.5475 16.4106L14.5464 16.4121L14.6659 16.5027ZM15.845 14.9865L15.7269 14.894L15.7266 14.8944L15.845 14.9865ZM21.2573 18.6726L21.1288 18.5951L21.1286 18.5954L21.2573 18.6726ZM20.2417 20.3654L20.1131 20.2883L20.1122 20.2898L20.2417 20.3654ZM21.1027 17.985L21.0194 18.1098L21.0197 18.1099L21.1027 17.985ZM17.0549 15.2852L17.1382 15.1604L17.1376 15.16L17.0549 15.2852ZM16.3684 15.3965L16.2504 15.3039L16.25 15.3044L16.3684 15.3965ZM15.1896 16.912L15.0711 16.8199L15.0704 16.8209L15.1896 16.912ZM13.6924 17.221L13.7658 17.0902L13.7648 17.0896L13.6924 17.221ZM13.4735 17.1003L13.5459 16.969L13.5452 16.9686L13.4735 17.1003ZM13.4727 17.0999L13.4008 17.2316L13.4009 17.2316L13.4727 17.0999ZM9.78768 14.2116L9.68162 14.3177L9.68162 14.3177L9.78768 14.2116ZM6.89924 10.5261L6.7675 10.5978L6.76754 10.5979L6.89924 10.5261ZM6.89877 10.5252L7.03051 10.4535L7.03018 10.4529L6.89877 10.5252ZM6.77843 10.3065L6.90985 10.2342L6.90927 10.2332L6.77843 10.3065ZM7.08737 8.8093L7.17849 8.92846L7.17947 8.9277L7.08737 8.8093ZM8.60282 7.63041L8.69492 7.74881L8.69539 7.74843L8.60282 7.63041ZM8.71413 6.94378L8.83925 6.86105L8.83893 6.86058L8.71413 6.94378ZM7.48329 5.0976L7.35845 5.18075L7.35848 5.18081L7.48329 5.0976ZM6.01682 2.89578L5.89191 2.97881L5.89198 2.97893L6.01682 2.89578ZM5.32927 2.74114L5.40644 2.86977L5.40661 2.86966L5.32927 2.74114ZM3.63651 3.75673L3.71221 3.88623L3.71368 3.88535L3.63651 3.75673ZM2.84764 4.77465L2.70334 4.73366L2.70299 4.73495L2.84764 4.77465ZM8.17182 15.8288L8.06575 15.9349L8.17182 15.8288ZM19.2252 21.1534L19.2649 21.298L19.2662 21.2977L19.2252 21.1534ZM21.5585 17.3045L17.5104 14.6047L17.3439 14.8543L21.392 17.5541L21.5585 17.3045ZM21.9601 19.0919C22.3256 18.4845 22.1486 17.6969 21.5583 17.3044L21.3922 17.5542C21.8489 17.8579 21.9859 18.4672 21.703 18.9372L21.9601 19.0919ZM20.9422 20.7837L21.9601 19.0919L21.703 18.9372L20.6852 20.6291L20.9422 20.7837ZM19.4411 21.9397C20.0726 21.7627 20.6109 21.3479 20.943 20.7824L20.6844 20.6304C20.3915 21.1291 19.9169 21.4948 19.3601 21.6509L19.4411 21.9397ZM17.8335 22.1499C18.3759 22.1523 18.9161 22.0817 19.4397 21.9401L19.3614 21.6505C18.8638 21.7851 18.3503 21.8522 17.8348 21.8499L17.8335 22.1499ZM7.59419 16.4065C12.1004 20.9126 15.4802 22.1499 17.8341 22.1499V21.8499C15.5914 21.8499 12.2835 20.6714 7.80632 16.1943L7.59419 16.4065ZM2.06007 4.55858C1.4303 6.8534 1.92867 10.7399 7.59418 16.4064L7.80633 16.1943C2.17879 10.5657 1.76003 6.78547 2.34938 4.63798L2.06007 4.55858ZM3.21752 3.05576C2.65224 3.38811 2.23751 3.92637 2.0603 4.55774L2.34914 4.63881C2.5054 4.08208 2.87111 3.60744 3.36957 3.31437L3.21752 3.05576ZM4.90907 2.03957L3.2163 3.05649L3.37079 3.31365L5.06356 2.29674L4.90907 2.03957ZM6.69561 2.44177C6.30333 1.85166 5.51631 1.67451 4.90903 2.0396L5.0636 2.29671C5.53342 2.01426 6.14229 2.15131 6.44577 2.60785L6.69561 2.44177ZM9.39509 6.48994L6.69549 2.44159L6.44589 2.60803L9.1455 6.65638L9.39509 6.48994ZM9.10551 8.27346C9.65179 7.84541 9.77797 7.0696 9.39546 6.49049L9.14514 6.65584C9.44151 7.10454 9.34374 7.70566 8.92047 8.03732L9.10551 8.27346ZM7.59001 9.45266L9.10511 8.27377L8.92088 8.037L7.40578 9.2159L7.59001 9.45266ZM7.49529 9.90929C7.40854 9.75525 7.44849 9.56082 7.58898 9.45346L7.40682 9.2151C7.14752 9.41326 7.07374 9.77215 7.2339 10.0565L7.49529 9.90929ZM7.61912 10.1351L7.49613 9.91079L7.23307 10.055L7.35606 10.2793L7.61912 10.1351ZM7.62176 10.1402L7.62175 10.1401L7.35342 10.2743L7.35343 10.2743L7.62176 10.1402ZM10.3686 13.6342C8.51582 11.7806 8.01851 10.8665 7.61925 10.1354L7.35595 10.2791C7.76727 11.0324 8.28116 11.9702 10.1564 13.8463L10.3686 13.6342ZM13.8671 16.3834C13.1347 15.9841 12.2214 15.4878 10.3686 13.6342L10.1564 13.8463C12.0318 15.7224 12.9689 16.2354 13.7235 16.6468L13.8671 16.3834ZM14.0921 16.5074L13.8678 16.3837L13.7229 16.6464L13.9472 16.7701L14.0921 16.5074ZM14.5464 16.4121C14.4399 16.5524 14.2465 16.5931 14.0925 16.5076L13.9468 16.7698C14.2313 16.9279 14.5887 16.8527 14.7854 16.5934L14.5464 16.4121ZM15.7266 14.8944L14.5475 16.4106L14.7843 16.5948L15.9635 15.0786L15.7266 14.8944ZM17.5099 14.6044C16.931 14.2214 16.1549 14.3475 15.7269 14.894L15.9631 15.079C16.2947 14.6555 16.8959 14.5579 17.3444 14.8546L17.5099 14.6044ZM21.1286 18.5954L20.1131 20.2883L20.3704 20.4426L21.3859 18.7497L21.1286 18.5954ZM21.0197 18.1099C21.18 18.2164 21.2282 18.4303 21.1288 18.5951L21.3857 18.75C21.568 18.4476 21.4798 18.0553 21.1856 17.86L21.0197 18.1099ZM16.9717 15.41L21.0194 18.1098L21.1859 17.8602L17.1382 15.1604L16.9717 15.41ZM16.4864 15.4891C16.6031 15.3404 16.8144 15.3061 16.9723 15.4103L17.1376 15.16C16.8495 14.9697 16.4636 15.0322 16.2504 15.3039L16.4864 15.4891ZM15.308 17.0041L16.4868 15.4886L16.25 15.3044L15.0712 16.8199L15.308 17.0041ZM13.6191 17.3518C14.1906 17.6723 14.9107 17.5237 15.3087 17.0031L15.0704 16.8209C14.7631 17.2228 14.207 17.3376 13.7658 17.0902L13.6191 17.3518ZM13.4011 17.2317L13.62 17.3524L13.7648 17.0896L13.5459 16.969L13.4011 17.2317ZM13.4009 17.2316L13.4017 17.2321L13.5452 16.9686L13.5444 16.9682L13.4009 17.2316ZM9.68162 14.3177C11.6257 16.2615 12.6092 16.7998 13.4008 17.2316L13.5445 16.9682C12.7747 16.5483 11.8151 16.0266 9.89374 14.1055L9.68162 14.3177ZM6.76754 10.5979C7.19937 11.3899 7.73754 12.3738 9.68162 14.3177L9.89374 14.1055C7.97247 12.1844 7.45086 11.2245 7.03094 10.4543L6.76754 10.5979ZM6.76702 10.5969L6.7675 10.5978L7.03098 10.4543L7.03051 10.4535L6.76702 10.5969ZM6.64702 10.3789L6.76735 10.5975L7.03018 10.4529L6.90985 10.2342L6.64702 10.3789ZM6.99625 8.69015C6.47578 9.08816 6.32714 9.80833 6.64759 10.3799L6.90927 10.2332C6.66184 9.79185 6.7766 9.23578 7.17849 8.92846L6.99625 8.69015ZM8.51071 7.51202L6.99527 8.69091L7.17947 8.9277L8.69492 7.74881L8.51071 7.51202ZM8.58901 7.02652C8.69331 7.18425 8.65904 7.39567 8.51024 7.51239L8.69539 7.74843C8.96715 7.53526 9.02975 7.14915 8.83925 6.86105L8.58901 7.02652ZM7.35848 5.18081L8.58932 7.02699L8.83893 6.86058L7.6081 5.01439L7.35848 5.18081ZM5.89198 2.97893L7.35845 5.18075L7.60814 5.01445L6.14167 2.81263L5.89198 2.97893ZM5.40661 2.86966C5.57154 2.77042 5.78535 2.81852 5.89191 2.97881L6.14174 2.81274C5.94639 2.51885 5.55435 2.43063 5.25193 2.61261L5.40661 2.86966ZM3.71368 3.88535L5.40644 2.86977L5.2521 2.61251L3.55934 3.6281L3.71368 3.88535ZM2.99193 4.81564C3.10305 4.42449 3.36116 4.09143 3.71221 3.88622L3.56081 3.62723C3.1429 3.87152 2.83563 4.26801 2.70335 4.73366L2.99193 4.81564ZM8.27789 15.7227C2.87391 10.3184 2.45011 6.78959 2.99229 4.81436L2.70299 4.73495C2.11931 6.86135 2.62795 10.4967 8.06575 15.9349L8.27789 15.7227ZM19.1855 21.0087C17.2107 21.551 13.6819 21.1271 8.27789 15.7227L8.06575 15.9349C13.5036 21.373 17.139 21.8818 19.2649 21.298L19.1855 21.0087ZM20.1122 20.2898C19.9074 20.6404 19.5748 20.8981 19.1842 21.0091L19.2662 21.2977C19.7313 21.1655 20.1273 20.8586 20.3713 20.4411L20.1122 20.2898Z" fill="currentColor"/>
<path d="M12.76 5.11998C16.1385 5.12374 18.8763 7.86159 18.8801 11.24C18.8801 11.4389 19.0412 11.6 19.2401 11.6C19.4389 11.6 19.6 11.4389 19.6 11.24C19.5959 7.4641 16.5359 4.40414 12.76 4.4C12.5612 4.4 12.4 4.56116 12.4 4.75999C12.4 4.95882 12.5612 5.11998 12.76 5.11998Z" fill="currentColor"/>
<path d="M13.4857 7.37142C15.2206 7.37346 16.6266 8.77939 16.6286 10.5143C16.6286 10.6721 16.7565 10.8 16.9143 10.8C17.0721 10.8 17.2 10.6721 17.2 10.5143C17.1976 8.46392 15.5361 6.80235 13.4857 6.80001C13.3279 6.80001 13.2 6.92791 13.2 7.08571C13.2 7.24352 13.3279 7.37142 13.4857 7.37142Z" fill="currentColor"/>
<path d="M13.5 8.99998C14.328 9.00096 14.999 9.67196 15 10.5C15 10.6657 15.1344 10.8 15.3 10.8C15.4657 10.8 15.6 10.6657 15.6 10.5C15.5987 9.34075 14.6593 8.40129 13.5 8.39999C13.3343 8.39999 13.2 8.53429 13.2 8.69999C13.2 8.86568 13.3343 8.99998 13.5 8.99998Z" fill="currentColor"/>
</svg>
