<svg width="24" height="24" viewBox="0 0 24 24" fill="none" xmlns="http://www.w3.org/2000/svg">
<path d="M2 4H7.733L10.3721 14.2326H19.9153L22 6.7907H11.7674" stroke="currentColor" stroke-width="1.2" stroke-linecap="round" stroke-linejoin="round"/>
<path d="M12.6628 17.9535C12.6628 18.448 12.2619 18.8489 11.7674 18.8489C11.2729 18.8489 10.8721 18.448 10.8721 17.9535C10.8721 17.459 11.2729 17.0582 11.7674 17.0582C12.2619 17.0582 12.6628 17.459 12.6628 17.9535Z" fill="currentColor" stroke="currentColor"/>
<path d="M19.4535 17.9535C19.4535 18.448 19.0527 18.8489 18.5582 18.8489C18.0637 18.8489 17.6628 18.448 17.6628 17.9535C17.6628 17.459 18.0637 17.0582 18.5582 17.0582C19.0527 17.0582 19.4535 17.459 19.4535 17.9535Z" fill="currentColor" stroke="currentColor"/>
</svg>
