<svg width="24" height="24" viewBox="0 0 24 24" fill="none" xmlns="http://www.w3.org/2000/svg">
<mask id="path-1-outside-1_3299_17692" maskUnits="userSpaceOnUse" x="1" y="1" width="22" height="22" fill="currentColor">
<rect fill="white" x="1" y="1" width="22" height="22"/>
<path d="M6.66667 7.33333C5.564 7.33333 4.66667 6.436 4.66667 5.33333C4.66667 4.23067 5.564 3.33333 6.66667 3.33333C7.76933 3.33333 8.66667 4.23067 8.66667 5.33333C8.66667 6.436 7.76933 7.33333 6.66667 7.33333ZM6.66667 4C5.93133 4 5.33333 4.598 5.33333 5.33333C5.33333 6.06867 5.93133 6.66667 6.66667 6.66667C7.402 6.66667 8 6.06867 8 5.33333C8 4.598 7.402 4 6.66667 4ZM5 22C4.91159 22 4.82681 21.9649 4.7643 21.9024C4.70179 21.8399 4.66667 21.7551 4.66667 21.6667V18.3333C4.66667 18.2449 4.70179 18.1601 4.7643 18.0976C4.82681 18.0351 4.91159 18 5 18C5.08841 18 5.17319 18.0351 5.2357 18.0976C5.29821 18.1601 5.33333 18.2449 5.33333 18.3333V21.6667C5.33333 21.7551 5.29821 21.8399 5.2357 21.9024C5.17319 21.9649 5.08841 22 5 22ZM3.66667 15.3333C3.57826 15.3333 3.49348 15.2982 3.43096 15.2357C3.36845 15.1732 3.33333 15.0884 3.33333 15V10.3333C3.33333 9.25467 4.20733 8 5.33333 8H8.33333C8.42174 8 8.50652 8.03512 8.56904 8.09763C8.63155 8.16014 8.66667 8.24493 8.66667 8.33333C8.66667 8.42174 8.63155 8.50652 8.56904 8.56904C8.50652 8.63155 8.42174 8.66667 8.33333 8.66667H5.33333C4.61533 8.66667 4 9.58333 4 10.3333V15C4 15.0884 3.96488 15.1732 3.90237 15.2357C3.83986 15.2982 3.75507 15.3333 3.66667 15.3333Z"/>
<path d="M4.66667 17.3333H2.66667C2.29933 17.3333 2 17.0347 2 16.6667V15.3333C2 14.9653 2.29933 14.6667 2.66667 14.6667H4.66667C5.034 14.6667 5.33333 14.9653 5.33333 15.3333V16.6667C5.33333 17.0347 5.034 17.3333 4.66667 17.3333ZM2.66667 15.3333V16.6667H4.66667V15.3333H2.66667ZM18.6667 7.33333C17.564 7.33333 16.6667 6.436 16.6667 5.33333C16.6667 4.23067 17.564 3.33333 18.6667 3.33333C19.7693 3.33333 20.6667 4.23067 20.6667 5.33333C20.6667 6.436 19.7693 7.33333 18.6667 7.33333ZM18.6667 4C17.9313 4 17.3333 4.598 17.3333 5.33333C17.3333 6.06867 17.9313 6.66667 18.6667 6.66667C19.402 6.66667 20 6.06867 20 5.33333C20 4.598 19.402 4 18.6667 4ZM21 22C20.9116 22 20.8268 21.9649 20.7643 21.9024C20.7018 21.8399 20.6667 21.7551 20.6667 21.6667V15C20.6667 14.9116 20.7018 14.8268 20.7643 14.7643C20.8268 14.7018 20.9116 14.6667 21 14.6667C21.0884 14.6667 21.1732 14.6315 21.2357 14.569C21.2982 14.5065 21.3333 14.4217 21.3333 14.3333V10.3333C21.3333 9.58333 20.718 8.66667 20 8.66667H17C16.9116 8.66667 16.8268 8.63155 16.7643 8.56904C16.7018 8.50652 16.6667 8.42174 16.6667 8.33333C16.6667 8.24493 16.7018 8.16014 16.7643 8.09763C16.8268 8.03512 16.9116 8 17 8H20C21.126 8 22 9.25467 22 10.3333V14.3333C22 14.768 21.7213 15.1387 21.3333 15.276V21.6667C21.3333 21.7551 21.2982 21.8399 21.2357 21.9024C21.1732 21.9649 21.0884 22 21 22ZM17.3333 17.3333H16.3333C16.2449 17.3333 16.1601 17.2982 16.0976 17.2357C16.0351 17.1732 16 17.0884 16 17C16 16.9116 16.0351 16.8268 16.0976 16.7643C16.1601 16.7018 16.2449 16.6667 16.3333 16.6667H17.3333V15.3333H16.3333C16.2449 15.3333 16.1601 15.2982 16.0976 15.2357C16.0351 15.1732 16 15.0884 16 15C16 14.9116 16.0351 14.8268 16.0976 14.7643C16.1601 14.7018 16.2449 14.6667 16.3333 14.6667H17.3333C17.7007 14.6667 18 14.9653 18 15.3333V16.6667C18 17.0347 17.7007 17.3333 17.3333 17.3333Z"/>
<path d="M12.6667 6C11.564 6 10.6667 5.10267 10.6667 4C10.6667 2.89733 11.564 2 12.6667 2C13.7693 2 14.6667 2.89733 14.6667 4C14.6667 5.10267 13.7693 6 12.6667 6ZM12.6667 2.66667C11.9313 2.66667 11.3333 3.26467 11.3333 4C11.3333 4.73533 11.9313 5.33333 12.6667 5.33333C13.402 5.33333 14 4.73533 14 4C14 3.26467 13.402 2.66667 12.6667 2.66667ZM19 22C18.9116 22 18.8268 21.9649 18.7643 21.9024C18.7018 21.8399 18.6667 21.7551 18.6667 21.6667V17C18.6667 16.9116 18.7018 16.8268 18.7643 16.7643C18.8268 16.7018 18.9116 16.6667 19 16.6667C19.0884 16.6667 19.1732 16.7018 19.2357 16.7643C19.2982 16.8268 19.3333 16.9116 19.3333 17V21.6667C19.3333 21.7551 19.2982 21.8399 19.2357 21.9024C19.1732 21.9649 19.0884 22 19 22ZM7 22C6.91159 22 6.82681 21.9649 6.7643 21.9024C6.70179 21.8399 6.66667 21.7551 6.66667 21.6667V17C6.66667 16.9116 6.70179 16.8268 6.7643 16.7643C6.82681 16.7018 6.91159 16.6667 7 16.6667C7.08841 16.6667 7.17319 16.7018 7.2357 16.7643C7.29821 16.8268 7.33333 16.9116 7.33333 17V21.6667C7.33333 21.7551 7.29821 21.8399 7.2357 21.9024C7.17319 21.9649 7.08841 22 7 22ZM11 22C10.9116 22 10.8268 21.9649 10.7643 21.9024C10.7018 21.8399 10.6667 21.7551 10.6667 21.6667V17.6667C10.6667 17.5783 10.7018 17.4935 10.7643 17.431C10.8268 17.3685 10.9116 17.3333 11 17.3333C11.0884 17.3333 11.1732 17.3685 11.2357 17.431C11.2982 17.4935 11.3333 17.5783 11.3333 17.6667V21.6667C11.3333 21.7551 11.2982 21.8399 11.2357 21.9024C11.1732 21.9649 11.0884 22 11 22ZM15 22C14.9116 22 14.8268 21.9649 14.7643 21.9024C14.7018 21.8399 14.6667 21.7551 14.6667 21.6667V14.3333C14.6667 14.2449 14.7018 14.1601 14.7643 14.0976C14.8268 14.0351 14.9116 14 15 14C15.0884 14 15.1732 13.9649 15.2357 13.9024C15.2982 13.8399 15.3333 13.7551 15.3333 13.6667V9C15.3333 8.25 14.718 7.33333 14 7.33333H11.3333C10.6153 7.33333 9.958 8.25733 9.924 9.014L9.66667 14.3493C9.66457 14.3931 9.65387 14.436 9.6352 14.4755C9.61652 14.5151 9.59023 14.5507 9.55782 14.5801C9.52541 14.6095 9.48752 14.6323 9.44632 14.6471C9.40511 14.6619 9.3614 14.6684 9.31767 14.6663C9.27394 14.6642 9.23105 14.6535 9.19145 14.6349C9.15185 14.6162 9.11632 14.5899 9.08689 14.5575C9.05745 14.5251 9.03469 14.4872 9.01989 14.446C9.0051 14.4048 8.99857 14.3611 9.00067 14.3173L9.25867 8.98267C9.30733 7.89 10.206 6.66667 11.3333 6.66667H14C15.126 6.66667 16 7.92133 16 9V13.6667C16 14.1013 15.7213 14.472 15.3333 14.6093V21.6667C15.3333 21.7551 15.2982 21.8399 15.2357 21.9024C15.1732 21.9649 15.0884 22 15 22Z"/>
<path d="M13 22C12.9116 22 12.8268 21.9649 12.7643 21.9024C12.7018 21.8399 12.6667 21.7551 12.6667 21.6667V15.6667C12.6667 15.5783 12.7018 15.4935 12.7643 15.431C12.8268 15.3685 12.9116 15.3333 13 15.3333C13.0884 15.3333 13.1732 15.3685 13.2357 15.431C13.2982 15.4935 13.3333 15.5783 13.3333 15.6667V21.6667C13.3333 21.7551 13.2982 21.8399 13.2357 21.9024C13.1732 21.9649 13.0884 22 13 22ZM10.6667 16.6667H8.66667C8.29933 16.6667 8 16.368 8 16V14.6667C8 14.2987 8.29933 14 8.66667 14H10.6667C11.034 14 11.3333 14.2987 11.3333 14.6667V16C11.3333 16.368 11.034 16.6667 10.6667 16.6667ZM8.66667 14.6667V16H10.6667V14.6667H8.66667Z"/>
</mask>
<path d="M6.66667 7.33333C5.564 7.33333 4.66667 6.436 4.66667 5.33333C4.66667 4.23067 5.564 3.33333 6.66667 3.33333C7.76933 3.33333 8.66667 4.23067 8.66667 5.33333C8.66667 6.436 7.76933 7.33333 6.66667 7.33333ZM6.66667 4C5.93133 4 5.33333 4.598 5.33333 5.33333C5.33333 6.06867 5.93133 6.66667 6.66667 6.66667C7.402 6.66667 8 6.06867 8 5.33333C8 4.598 7.402 4 6.66667 4ZM5 22C4.91159 22 4.82681 21.9649 4.7643 21.9024C4.70179 21.8399 4.66667 21.7551 4.66667 21.6667V18.3333C4.66667 18.2449 4.70179 18.1601 4.7643 18.0976C4.82681 18.0351 4.91159 18 5 18C5.08841 18 5.17319 18.0351 5.2357 18.0976C5.29821 18.1601 5.33333 18.2449 5.33333 18.3333V21.6667C5.33333 21.7551 5.29821 21.8399 5.2357 21.9024C5.17319 21.9649 5.08841 22 5 22ZM3.66667 15.3333C3.57826 15.3333 3.49348 15.2982 3.43096 15.2357C3.36845 15.1732 3.33333 15.0884 3.33333 15V10.3333C3.33333 9.25467 4.20733 8 5.33333 8H8.33333C8.42174 8 8.50652 8.03512 8.56904 8.09763C8.63155 8.16014 8.66667 8.24493 8.66667 8.33333C8.66667 8.42174 8.63155 8.50652 8.56904 8.56904C8.50652 8.63155 8.42174 8.66667 8.33333 8.66667H5.33333C4.61533 8.66667 4 9.58333 4 10.3333V15C4 15.0884 3.96488 15.1732 3.90237 15.2357C3.83986 15.2982 3.75507 15.3333 3.66667 15.3333Z" fill="currentColor"/>
<path d="M4.66667 17.3333H2.66667C2.29933 17.3333 2 17.0347 2 16.6667V15.3333C2 14.9653 2.29933 14.6667 2.66667 14.6667H4.66667C5.034 14.6667 5.33333 14.9653 5.33333 15.3333V16.6667C5.33333 17.0347 5.034 17.3333 4.66667 17.3333ZM2.66667 15.3333V16.6667H4.66667V15.3333H2.66667ZM18.6667 7.33333C17.564 7.33333 16.6667 6.436 16.6667 5.33333C16.6667 4.23067 17.564 3.33333 18.6667 3.33333C19.7693 3.33333 20.6667 4.23067 20.6667 5.33333C20.6667 6.436 19.7693 7.33333 18.6667 7.33333ZM18.6667 4C17.9313 4 17.3333 4.598 17.3333 5.33333C17.3333 6.06867 17.9313 6.66667 18.6667 6.66667C19.402 6.66667 20 6.06867 20 5.33333C20 4.598 19.402 4 18.6667 4ZM21 22C20.9116 22 20.8268 21.9649 20.7643 21.9024C20.7018 21.8399 20.6667 21.7551 20.6667 21.6667V15C20.6667 14.9116 20.7018 14.8268 20.7643 14.7643C20.8268 14.7018 20.9116 14.6667 21 14.6667C21.0884 14.6667 21.1732 14.6315 21.2357 14.569C21.2982 14.5065 21.3333 14.4217 21.3333 14.3333V10.3333C21.3333 9.58333 20.718 8.66667 20 8.66667H17C16.9116 8.66667 16.8268 8.63155 16.7643 8.56904C16.7018 8.50652 16.6667 8.42174 16.6667 8.33333C16.6667 8.24493 16.7018 8.16014 16.7643 8.09763C16.8268 8.03512 16.9116 8 17 8H20C21.126 8 22 9.25467 22 10.3333V14.3333C22 14.768 21.7213 15.1387 21.3333 15.276V21.6667C21.3333 21.7551 21.2982 21.8399 21.2357 21.9024C21.1732 21.9649 21.0884 22 21 22ZM17.3333 17.3333H16.3333C16.2449 17.3333 16.1601 17.2982 16.0976 17.2357C16.0351 17.1732 16 17.0884 16 17C16 16.9116 16.0351 16.8268 16.0976 16.7643C16.1601 16.7018 16.2449 16.6667 16.3333 16.6667H17.3333V15.3333H16.3333C16.2449 15.3333 16.1601 15.2982 16.0976 15.2357C16.0351 15.1732 16 15.0884 16 15C16 14.9116 16.0351 14.8268 16.0976 14.7643C16.1601 14.7018 16.2449 14.6667 16.3333 14.6667H17.3333C17.7007 14.6667 18 14.9653 18 15.3333V16.6667C18 17.0347 17.7007 17.3333 17.3333 17.3333Z" fill="currentColor"/>
<path d="M12.6667 6C11.564 6 10.6667 5.10267 10.6667 4C10.6667 2.89733 11.564 2 12.6667 2C13.7693 2 14.6667 2.89733 14.6667 4C14.6667 5.10267 13.7693 6 12.6667 6ZM12.6667 2.66667C11.9313 2.66667 11.3333 3.26467 11.3333 4C11.3333 4.73533 11.9313 5.33333 12.6667 5.33333C13.402 5.33333 14 4.73533 14 4C14 3.26467 13.402 2.66667 12.6667 2.66667ZM19 22C18.9116 22 18.8268 21.9649 18.7643 21.9024C18.7018 21.8399 18.6667 21.7551 18.6667 21.6667V17C18.6667 16.9116 18.7018 16.8268 18.7643 16.7643C18.8268 16.7018 18.9116 16.6667 19 16.6667C19.0884 16.6667 19.1732 16.7018 19.2357 16.7643C19.2982 16.8268 19.3333 16.9116 19.3333 17V21.6667C19.3333 21.7551 19.2982 21.8399 19.2357 21.9024C19.1732 21.9649 19.0884 22 19 22ZM7 22C6.91159 22 6.82681 21.9649 6.7643 21.9024C6.70179 21.8399 6.66667 21.7551 6.66667 21.6667V17C6.66667 16.9116 6.70179 16.8268 6.7643 16.7643C6.82681 16.7018 6.91159 16.6667 7 16.6667C7.08841 16.6667 7.17319 16.7018 7.2357 16.7643C7.29821 16.8268 7.33333 16.9116 7.33333 17V21.6667C7.33333 21.7551 7.29821 21.8399 7.2357 21.9024C7.17319 21.9649 7.08841 22 7 22ZM11 22C10.9116 22 10.8268 21.9649 10.7643 21.9024C10.7018 21.8399 10.6667 21.7551 10.6667 21.6667V17.6667C10.6667 17.5783 10.7018 17.4935 10.7643 17.431C10.8268 17.3685 10.9116 17.3333 11 17.3333C11.0884 17.3333 11.1732 17.3685 11.2357 17.431C11.2982 17.4935 11.3333 17.5783 11.3333 17.6667V21.6667C11.3333 21.7551 11.2982 21.8399 11.2357 21.9024C11.1732 21.9649 11.0884 22 11 22ZM15 22C14.9116 22 14.8268 21.9649 14.7643 21.9024C14.7018 21.8399 14.6667 21.7551 14.6667 21.6667V14.3333C14.6667 14.2449 14.7018 14.1601 14.7643 14.0976C14.8268 14.0351 14.9116 14 15 14C15.0884 14 15.1732 13.9649 15.2357 13.9024C15.2982 13.8399 15.3333 13.7551 15.3333 13.6667V9C15.3333 8.25 14.718 7.33333 14 7.33333H11.3333C10.6153 7.33333 9.958 8.25733 9.924 9.014L9.66667 14.3493C9.66457 14.3931 9.65387 14.436 9.6352 14.4755C9.61652 14.5151 9.59023 14.5507 9.55782 14.5801C9.52541 14.6095 9.48752 14.6323 9.44632 14.6471C9.40511 14.6619 9.3614 14.6684 9.31767 14.6663C9.27394 14.6642 9.23105 14.6535 9.19145 14.6349C9.15185 14.6162 9.11632 14.5899 9.08689 14.5575C9.05745 14.5251 9.03469 14.4872 9.01989 14.446C9.0051 14.4048 8.99857 14.3611 9.00067 14.3173L9.25867 8.98267C9.30733 7.89 10.206 6.66667 11.3333 6.66667H14C15.126 6.66667 16 7.92133 16 9V13.6667C16 14.1013 15.7213 14.472 15.3333 14.6093V21.6667C15.3333 21.7551 15.2982 21.8399 15.2357 21.9024C15.1732 21.9649 15.0884 22 15 22Z" fill="currentColor"/>
<path d="M13 22C12.9116 22 12.8268 21.9649 12.7643 21.9024C12.7018 21.8399 12.6667 21.7551 12.6667 21.6667V15.6667C12.6667 15.5783 12.7018 15.4935 12.7643 15.431C12.8268 15.3685 12.9116 15.3333 13 15.3333C13.0884 15.3333 13.1732 15.3685 13.2357 15.431C13.2982 15.4935 13.3333 15.5783 13.3333 15.6667V21.6667C13.3333 21.7551 13.2982 21.8399 13.2357 21.9024C13.1732 21.9649 13.0884 22 13 22ZM10.6667 16.6667H8.66667C8.29933 16.6667 8 16.368 8 16V14.6667C8 14.2987 8.29933 14 8.66667 14H10.6667C11.034 14 11.3333 14.2987 11.3333 14.6667V16C11.3333 16.368 11.034 16.6667 10.6667 16.6667ZM8.66667 14.6667V16H10.6667V14.6667H8.66667Z" fill="currentColor"/>
<path d="M4.56667 16.6667V17H4.76667V16.6667H4.56667ZM13.1 21.6667V15.6667H12.9V21.6667H13.1ZM10.5667 16V16.3333H10.7667V16H10.5667ZM4.66667 16.6667V16.8667H4.86667V16.6667H4.66667ZM2.66667 15.3333V15.1333H2.46667V15.3333H2.66667ZM2.66667 16.6667H2.46667V16.8667H2.66667V16.6667ZM4.66667 15.3333H4.86667V15.1333H4.66667V15.3333ZM21.3333 15.276L21.2666 15.0875L21.1333 15.1346V15.276H21.3333ZM17.3333 16.6667V16.8667H17.5333V16.6667H17.3333ZM17.3333 15.3333H17.5333V15.1333H17.3333V15.3333ZM9.924 9.014L10.1238 9.02364L10.1238 9.02298L9.924 9.014ZM9.66667 14.3493L9.4669 14.3397L9.4669 14.3397L9.66667 14.3493ZM9.00067 14.3173L8.8009 14.3077L8.8009 14.3077L9.00067 14.3173ZM9.25867 8.98267L9.45843 8.99233L9.45847 8.99157L9.25867 8.98267ZM15.3333 14.6093L15.2666 14.4208L15.1333 14.468V14.6093H15.3333ZM10.6667 16V16.2H10.8667V16H10.6667ZM8.66667 14.6667V14.4667H8.46667V14.6667H8.66667ZM8.66667 16H8.46667V16.2H8.66667V16ZM10.6667 14.6667H10.8667V14.4667H10.6667V14.6667ZM6.66667 7.13333C5.67446 7.13333 4.86667 6.32554 4.86667 5.33333H4.46667C4.46667 6.54646 5.45354 7.53333 6.66667 7.53333V7.13333ZM4.86667 5.33333C4.86667 4.34112 5.67446 3.53333 6.66667 3.53333V3.13333C5.45354 3.13333 4.46667 4.12021 4.46667 5.33333H4.86667ZM6.66667 3.53333C7.65888 3.53333 8.46667 4.34112 8.46667 5.33333H8.86667C8.86667 4.12021 7.87979 3.13333 6.66667 3.13333V3.53333ZM8.46667 5.33333C8.46667 6.32554 7.65888 7.13333 6.66667 7.13333V7.53333C7.87979 7.53333 8.86667 6.54646 8.86667 5.33333H8.46667ZM6.66667 3.8C5.82088 3.8 5.13333 4.48754 5.13333 5.33333H5.53333C5.53333 4.70846 6.04179 4.2 6.66667 4.2V3.8ZM5.13333 5.33333C5.13333 6.17912 5.82088 6.86667 6.66667 6.86667V6.46667C6.04179 6.46667 5.53333 5.95821 5.53333 5.33333H5.13333ZM6.66667 6.86667C7.51246 6.86667 8.2 6.17912 8.2 5.33333H7.8C7.8 5.95821 7.29154 6.46667 6.66667 6.46667V6.86667ZM8.2 5.33333C8.2 4.48754 7.51246 3.8 6.66667 3.8V4.2C7.29154 4.2 7.8 4.70846 7.8 5.33333H8.2ZM5 21.8C4.96464 21.8 4.93072 21.786 4.90572 21.7609L4.62288 22.0438C4.7229 22.1438 4.85855 22.2 5 22.2V21.8ZM4.90572 21.7609C4.88071 21.7359 4.86667 21.702 4.86667 21.6667H4.46667C4.46667 21.8081 4.52286 21.9438 4.62288 22.0438L4.90572 21.7609ZM4.86667 21.6667V18.3333H4.46667V21.6667H4.86667ZM4.86667 18.3333C4.86667 18.298 4.88071 18.2641 4.90572 18.2391L4.62288 17.9562C4.52286 18.0562 4.46667 18.1919 4.46667 18.3333H4.86667ZM4.90572 18.2391C4.93072 18.214 4.96464 18.2 5 18.2V17.8C4.85855 17.8 4.7229 17.8562 4.62288 17.9562L4.90572 18.2391ZM5 18.2C5.03536 18.2 5.06928 18.214 5.09428 18.2391L5.37712 17.9562C5.2771 17.8562 5.14145 17.8 5 17.8V18.2ZM5.09428 18.2391C5.11929 18.2641 5.13333 18.298 5.13333 18.3333H5.53333C5.53333 18.1919 5.47714 18.0562 5.37712 17.9562L5.09428 18.2391ZM5.13333 18.3333V21.6667H5.53333V18.3333H5.13333ZM5.13333 21.6667C5.13333 21.702 5.11929 21.7359 5.09428 21.7609L5.37712 22.0438C5.47714 21.9438 5.53333 21.8081 5.53333 21.6667H5.13333ZM5.09428 21.7609C5.06928 21.786 5.03536 21.8 5 21.8V22.2C5.14145 22.2 5.2771 22.1438 5.37712 22.0438L5.09428 21.7609ZM3.66667 15.1333C3.6313 15.1333 3.59739 15.1193 3.57239 15.0943L3.28954 15.3771C3.38956 15.4771 3.52522 15.5333 3.66667 15.5333V15.1333ZM3.57239 15.0943C3.54738 15.0693 3.53333 15.0354 3.53333 15H3.13333C3.13333 15.1414 3.18952 15.2771 3.28954 15.3771L3.57239 15.0943ZM3.53333 15V10.3333H3.13333V15H3.53333ZM3.53333 10.3333C3.53333 9.84396 3.7334 9.30391 4.06718 8.8872C4.40078 8.47072 4.84833 8.2 5.33333 8.2V7.8C4.69234 7.8 4.13989 8.15661 3.75499 8.63713C3.37027 9.11742 3.13333 9.74404 3.13333 10.3333H3.53333ZM5.33333 8.2H8.33333V7.8H5.33333V8.2ZM8.33333 8.2C8.3687 8.2 8.40261 8.21405 8.42761 8.23905L8.71046 7.95621C8.61044 7.85619 8.47478 7.8 8.33333 7.8V8.2ZM8.42761 8.23905C8.45262 8.26406 8.46667 8.29797 8.46667 8.33333H8.86667C8.86667 8.19188 8.81048 8.05623 8.71046 7.95621L8.42761 8.23905ZM8.46667 8.33333C8.46667 8.3687 8.45262 8.40261 8.42761 8.42761L8.71046 8.71046C8.81048 8.61044 8.86667 8.47478 8.86667 8.33333H8.46667ZM8.42761 8.42761C8.40261 8.45262 8.3687 8.46667 8.33333 8.46667V8.86667C8.47478 8.86667 8.61044 8.81048 8.71046 8.71046L8.42761 8.42761ZM8.33333 8.46667H5.33333V8.86667H8.33333V8.46667ZM5.33333 8.46667C4.88734 8.46667 4.50165 8.74846 4.23775 9.09831C3.97192 9.45072 3.8 9.90878 3.8 10.3333H4.2C4.2 10.0079 4.33575 9.63261 4.55708 9.33919C4.78035 9.04321 5.06132 8.86667 5.33333 8.86667V8.46667ZM3.8 10.3333V15H4.2V10.3333H3.8ZM3.8 15C3.8 15.0354 3.78595 15.0693 3.76095 15.0943L4.04379 15.3771C4.14381 15.2771 4.2 15.1414 4.2 15H3.8ZM3.76095 15.0943C3.73594 15.1193 3.70203 15.1333 3.66667 15.1333V15.5333C3.80812 15.5333 3.94377 15.4771 4.04379 15.3771L3.76095 15.0943ZM4.66667 17.1333H2.66667V17.5333H4.66667V17.1333ZM2.66667 17.1333C2.40966 17.1333 2.2 16.9241 2.2 16.6667H1.8C1.8 17.1453 2.18901 17.5333 2.66667 17.5333V17.1333ZM2.2 16.6667V15.3333H1.8V16.6667H2.2ZM2.2 15.3333C2.2 15.0759 2.40966 14.8667 2.66667 14.8667V14.4667C2.18901 14.4667 1.8 14.8547 1.8 15.3333H2.2ZM2.66667 14.8667H4.66667V14.4667H2.66667V14.8667ZM4.66667 14.8667C4.92367 14.8667 5.13333 15.0759 5.13333 15.3333H5.53333C5.53333 14.8547 5.14433 14.4667 4.66667 14.4667V14.8667ZM5.13333 15.3333V16.6667H5.53333V15.3333H5.13333ZM5.13333 16.6667C5.13333 16.9241 4.92367 17.1333 4.66667 17.1333V17.5333C5.14433 17.5333 5.53333 17.1453 5.53333 16.6667H5.13333ZM2.46667 15.3333V16.6667H2.86667V15.3333H2.46667ZM2.66667 16.8667H4.66667V16.4667H2.66667V16.8667ZM4.86667 16.6667V15.3333H4.46667V16.6667H4.86667ZM4.66667 15.1333H2.66667V15.5333H4.66667V15.1333ZM18.6667 7.13333C17.6745 7.13333 16.8667 6.32554 16.8667 5.33333H16.4667C16.4667 6.54646 17.4535 7.53333 18.6667 7.53333V7.13333ZM16.8667 5.33333C16.8667 4.34112 17.6745 3.53333 18.6667 3.53333V3.13333C17.4535 3.13333 16.4667 4.12021 16.4667 5.33333H16.8667ZM18.6667 3.53333C19.6589 3.53333 20.4667 4.34112 20.4667 5.33333H20.8667C20.8667 4.12021 19.8798 3.13333 18.6667 3.13333V3.53333ZM20.4667 5.33333C20.4667 6.32554 19.6589 7.13333 18.6667 7.13333V7.53333C19.8798 7.53333 20.8667 6.54646 20.8667 5.33333H20.4667ZM18.6667 3.8C17.8209 3.8 17.1333 4.48754 17.1333 5.33333H17.5333C17.5333 4.70846 18.0418 4.2 18.6667 4.2V3.8ZM17.1333 5.33333C17.1333 6.17912 17.8209 6.86667 18.6667 6.86667V6.46667C18.0418 6.46667 17.5333 5.95821 17.5333 5.33333H17.1333ZM18.6667 6.86667C19.5125 6.86667 20.2 6.17912 20.2 5.33333H19.8C19.8 5.95821 19.2915 6.46667 18.6667 6.46667V6.86667ZM20.2 5.33333C20.2 4.48754 19.5125 3.8 18.6667 3.8V4.2C19.2915 4.2 19.8 4.70846 19.8 5.33333H20.2ZM21 21.8C20.9646 21.8 20.9307 21.786 20.9057 21.7609L20.6229 22.0438C20.7229 22.1438 20.8586 22.2 21 22.2V21.8ZM20.9057 21.7609C20.8807 21.7359 20.8667 21.702 20.8667 21.6667H20.4667C20.4667 21.8081 20.5229 21.9438 20.6229 22.0438L20.9057 21.7609ZM20.8667 21.6667V15H20.4667V21.6667H20.8667ZM20.8667 15C20.8667 14.9646 20.8807 14.9307 20.9057 14.9057L20.6229 14.6229C20.5229 14.7229 20.4667 14.8586 20.4667 15H20.8667ZM20.9057 14.9057C20.9307 14.8807 20.9646 14.8667 21 14.8667V14.4667C20.8586 14.4667 20.7229 14.5229 20.6229 14.6229L20.9057 14.9057ZM21 14.8667C21.1414 14.8667 21.2771 14.8105 21.3771 14.7105L21.0943 14.4276C21.0693 14.4526 21.0354 14.4667 21 14.4667V14.8667ZM21.3771 14.7105C21.4771 14.6104 21.5333 14.4748 21.5333 14.3333H21.1333C21.1333 14.3687 21.1193 14.4026 21.0943 14.4276L21.3771 14.7105ZM21.5333 14.3333V10.3333H21.1333V14.3333H21.5333ZM21.5333 10.3333C21.5333 9.90878 21.3614 9.45072 21.0956 9.09831C20.8317 8.74846 20.446 8.46667 20 8.46667V8.86667C20.272 8.86667 20.553 9.04321 20.7762 9.33919C20.9976 9.63261 21.1333 10.0079 21.1333 10.3333H21.5333ZM20 8.46667H17V8.86667H20V8.46667ZM17 8.46667C16.9646 8.46667 16.9307 8.45262 16.9057 8.42761L16.6229 8.71046C16.7229 8.81048 16.8586 8.86667 17 8.86667V8.46667ZM16.9057 8.42761C16.8807 8.40261 16.8667 8.3687 16.8667 8.33333H16.4667C16.4667 8.47478 16.5229 8.61044 16.6229 8.71046L16.9057 8.42761ZM16.8667 8.33333C16.8667 8.29797 16.8807 8.26406 16.9057 8.23905L16.6229 7.95621C16.5229 8.05623 16.4667 8.19188 16.4667 8.33333H16.8667ZM16.9057 8.23905C16.9307 8.21405 16.9646 8.2 17 8.2V7.8C16.8586 7.8 16.7229 7.85619 16.6229 7.95621L16.9057 8.23905ZM17 8.2H20V7.8H17V8.2ZM20 8.2C20.485 8.2 20.9326 8.47072 21.2662 8.8872C21.5999 9.30391 21.8 9.84396 21.8 10.3333H22.2C22.2 9.74404 21.9631 9.11742 21.5783 8.63713C21.1934 8.15661 20.641 7.8 20 7.8V8.2ZM21.8 10.3333V14.3333H22.2V10.3333H21.8ZM21.8 14.3333C21.8 14.6805 21.5774 14.9775 21.2666 15.0875L21.4001 15.4645C21.8653 15.2999 22.2 14.8555 22.2 14.3333H21.8ZM21.1333 15.276V21.6667H21.5333V15.276H21.1333ZM21.1333 21.6667C21.1333 21.702 21.1193 21.7359 21.0943 21.7609L21.3771 22.0438C21.4771 21.9438 21.5333 21.8081 21.5333 21.6667H21.1333ZM21.0943 21.7609C21.0693 21.786 21.0354 21.8 21 21.8V22.2C21.1414 22.2 21.2771 22.1438 21.3771 22.0438L21.0943 21.7609ZM17.3333 17.1333H16.3333V17.5333H17.3333V17.1333ZM16.3333 17.1333C16.298 17.1333 16.2641 17.1193 16.2391 17.0943L15.9562 17.3771C16.0562 17.4771 16.1919 17.5333 16.3333 17.5333V17.1333ZM16.2391 17.0943C16.214 17.0693 16.2 17.0354 16.2 17H15.8C15.8 17.1414 15.8562 17.2771 15.9562 17.3771L16.2391 17.0943ZM16.2 17C16.2 16.9646 16.214 16.9307 16.2391 16.9057L15.9562 16.6229C15.8562 16.7229 15.8 16.8586 15.8 17H16.2ZM16.2391 16.9057C16.2641 16.8807 16.298 16.8667 16.3333 16.8667V16.4667C16.1919 16.4667 16.0562 16.5229 15.9562 16.6229L16.2391 16.9057ZM16.3333 16.8667H17.3333V16.4667H16.3333V16.8667ZM17.5333 16.6667V15.3333H17.1333V16.6667H17.5333ZM17.3333 15.1333H16.3333V15.5333H17.3333V15.1333ZM16.3333 15.1333C16.298 15.1333 16.2641 15.1193 16.2391 15.0943L15.9562 15.3771C16.0562 15.4771 16.1919 15.5333 16.3333 15.5333V15.1333ZM16.2391 15.0943C16.214 15.0693 16.2 15.0354 16.2 15H15.8C15.8 15.1414 15.8562 15.2771 15.9562 15.3771L16.2391 15.0943ZM16.2 15C16.2 14.9646 16.214 14.9307 16.2391 14.9057L15.9562 14.6229C15.8562 14.7229 15.8 14.8586 15.8 15H16.2ZM16.2391 14.9057C16.2641 14.8807 16.298 14.8667 16.3333 14.8667V14.4667C16.1919 14.4667 16.0562 14.5229 15.9562 14.6229L16.2391 14.9057ZM16.3333 14.8667H17.3333V14.4667H16.3333V14.8667ZM17.3333 14.8667C17.5903 14.8667 17.8 15.0759 17.8 15.3333H18.2C18.2 14.8547 17.811 14.4667 17.3333 14.4667V14.8667ZM17.8 15.3333V16.6667H18.2V15.3333H17.8ZM17.8 16.6667C17.8 16.9241 17.5903 17.1333 17.3333 17.1333V17.5333C17.811 17.5333 18.2 17.1453 18.2 16.6667H17.8ZM12.6667 5.8C11.6745 5.8 10.8667 4.99221 10.8667 4H10.4667C10.4667 5.21312 11.4535 6.2 12.6667 6.2V5.8ZM10.8667 4C10.8667 3.00779 11.6745 2.2 12.6667 2.2V1.8C11.4535 1.8 10.4667 2.78688 10.4667 4H10.8667ZM12.6667 2.2C13.6589 2.2 14.4667 3.00779 14.4667 4H14.8667C14.8667 2.78688 13.8798 1.8 12.6667 1.8V2.2ZM14.4667 4C14.4667 4.99221 13.6589 5.8 12.6667 5.8V6.2C13.8798 6.2 14.8667 5.21312 14.8667 4H14.4667ZM12.6667 2.46667C11.8209 2.46667 11.1333 3.15421 11.1333 4H11.5333C11.5333 3.37512 12.0418 2.86667 12.6667 2.86667V2.46667ZM11.1333 4C11.1333 4.84579 11.8209 5.53333 12.6667 5.53333V5.13333C12.0418 5.13333 11.5333 4.62488 11.5333 4H11.1333ZM12.6667 5.53333C13.5125 5.53333 14.2 4.84579 14.2 4H13.8C13.8 4.62488 13.2915 5.13333 12.6667 5.13333V5.53333ZM14.2 4C14.2 3.15421 13.5125 2.46667 12.6667 2.46667V2.86667C13.2915 2.86667 13.8 3.37512 13.8 4H14.2ZM19 21.8C18.9646 21.8 18.9307 21.786 18.9057 21.7609L18.6229 22.0438C18.7229 22.1438 18.8586 22.2 19 22.2V21.8ZM18.9057 21.7609C18.8807 21.7359 18.8667 21.702 18.8667 21.6667H18.4667C18.4667 21.8081 18.5229 21.9438 18.6229 22.0438L18.9057 21.7609ZM18.8667 21.6667V17H18.4667V21.6667H18.8667ZM18.8667 17C18.8667 16.9646 18.8807 16.9307 18.9057 16.9057L18.6229 16.6229C18.5229 16.7229 18.4667 16.8586 18.4667 17H18.8667ZM18.9057 16.9057C18.9307 16.8807 18.9646 16.8667 19 16.8667V16.4667C18.8586 16.4667 18.7229 16.5229 18.6229 16.6229L18.9057 16.9057ZM19 16.8667C19.0354 16.8667 19.0693 16.8807 19.0943 16.9057L19.3771 16.6229C19.2771 16.5229 19.1414 16.4667 19 16.4667V16.8667ZM19.0943 16.9057C19.1193 16.9307 19.1333 16.9646 19.1333 17H19.5333C19.5333 16.8586 19.4771 16.7229 19.3771 16.6229L19.0943 16.9057ZM19.1333 17V21.6667H19.5333V17H19.1333ZM19.1333 21.6667C19.1333 21.702 19.1193 21.7359 19.0943 21.7609L19.3771 22.0438C19.4771 21.9438 19.5333 21.8081 19.5333 21.6667H19.1333ZM19.0943 21.7609C19.0693 21.786 19.0354 21.8 19 21.8V22.2C19.1414 22.2 19.2771 22.1438 19.3771 22.0438L19.0943 21.7609ZM7 21.8C6.96464 21.8 6.93072 21.786 6.90572 21.7609L6.62288 22.0438C6.7229 22.1438 6.85855 22.2 7 22.2V21.8ZM6.90572 21.7609C6.88071 21.7359 6.86667 21.702 6.86667 21.6667H6.46667C6.46667 21.8081 6.52286 21.9438 6.62288 22.0438L6.90572 21.7609ZM6.86667 21.6667V17H6.46667V21.6667H6.86667ZM6.86667 17C6.86667 16.9646 6.88071 16.9307 6.90572 16.9057L6.62288 16.6229C6.52286 16.7229 6.46667 16.8586 6.46667 17H6.86667ZM6.90572 16.9057C6.93072 16.8807 6.96464 16.8667 7 16.8667V16.4667C6.85855 16.4667 6.7229 16.5229 6.62288 16.6229L6.90572 16.9057ZM7 16.8667C7.03536 16.8667 7.06928 16.8807 7.09428 16.9057L7.37712 16.6229C7.2771 16.5229 7.14145 16.4667 7 16.4667V16.8667ZM7.09428 16.9057C7.11929 16.9307 7.13333 16.9646 7.13333 17H7.53333C7.53333 16.8586 7.47714 16.7229 7.37712 16.6229L7.09428 16.9057ZM7.13333 17V21.6667H7.53333V17H7.13333ZM7.13333 21.6667C7.13333 21.702 7.11929 21.7359 7.09428 21.7609L7.37712 22.0438C7.47714 21.9438 7.53333 21.8081 7.53333 21.6667H7.13333ZM7.09428 21.7609C7.06928 21.786 7.03536 21.8 7 21.8V22.2C7.14145 22.2 7.2771 22.1438 7.37712 22.0438L7.09428 21.7609ZM11 21.8C10.9646 21.8 10.9307 21.786 10.9057 21.7609L10.6229 22.0438C10.7229 22.1438 10.8586 22.2 11 22.2V21.8ZM10.9057 21.7609C10.8807 21.7359 10.8667 21.702 10.8667 21.6667H10.4667C10.4667 21.8081 10.5229 21.9438 10.6229 22.0438L10.9057 21.7609ZM10.8667 21.6667V17.6667H10.4667V21.6667H10.8667ZM10.8667 17.6667C10.8667 17.6313 10.8807 17.5974 10.9057 17.5724L10.6229 17.2895C10.5229 17.3896 10.4667 17.5252 10.4667 17.6667H10.8667ZM10.9057 17.5724C10.9307 17.5474 10.9646 17.5333 11 17.5333V17.1333C10.8586 17.1333 10.7229 17.1895 10.6229 17.2895L10.9057 17.5724ZM11 17.5333C11.0354 17.5333 11.0693 17.5474 11.0943 17.5724L11.3771 17.2895C11.2771 17.1895 11.1414 17.1333 11 17.1333V17.5333ZM11.0943 17.5724C11.1193 17.5974 11.1333 17.6313 11.1333 17.6667H11.5333C11.5333 17.5252 11.4771 17.3896 11.3771 17.2895L11.0943 17.5724ZM11.1333 17.6667V21.6667H11.5333V17.6667H11.1333ZM11.1333 21.6667C11.1333 21.702 11.1193 21.7359 11.0943 21.7609L11.3771 22.0438C11.4771 21.9438 11.5333 21.8081 11.5333 21.6667H11.1333ZM11.0943 21.7609C11.0693 21.786 11.0354 21.8 11 21.8V22.2C11.1414 22.2 11.2771 22.1438 11.3771 22.0438L11.0943 21.7609ZM15 21.8C14.9646 21.8 14.9307 21.786 14.9057 21.7609L14.6229 22.0438C14.7229 22.1438 14.8586 22.2 15 22.2V21.8ZM14.9057 21.7609C14.8807 21.7359 14.8667 21.702 14.8667 21.6667H14.4667C14.4667 21.8081 14.5229 21.9438 14.6229 22.0438L14.9057 21.7609ZM14.8667 21.6667V14.3333H14.4667V21.6667H14.8667ZM14.8667 14.3333C14.8667 14.298 14.8807 14.2641 14.9057 14.2391L14.6229 13.9562C14.5229 14.0562 14.4667 14.1919 14.4667 14.3333H14.8667ZM14.9057 14.2391C14.9307 14.214 14.9646 14.2 15 14.2V13.8C14.8586 13.8 14.7229 13.8562 14.6229 13.9562L14.9057 14.2391ZM15 14.2C15.1414 14.2 15.2771 14.1438 15.3771 14.0438L15.0943 13.7609C15.0693 13.786 15.0354 13.8 15 13.8V14.2ZM15.3771 14.0438C15.4771 13.9438 15.5333 13.8081 15.5333 13.6667H15.1333C15.1333 13.702 15.1193 13.7359 15.0943 13.7609L15.3771 14.0438ZM15.5333 13.6667V9H15.1333V13.6667H15.5333ZM15.5333 9C15.5333 8.57544 15.3614 8.11739 15.0956 7.76498C14.8317 7.41512 14.446 7.13333 14 7.13333V7.53333C14.272 7.53333 14.553 7.70988 14.7762 8.00586C14.9976 8.29928 15.1333 8.67456 15.1333 9H15.5333ZM14 7.13333H11.3333V7.53333H14V7.13333ZM11.3333 7.13333C10.8884 7.13333 10.493 7.41582 10.2155 7.7656C9.93545 8.11855 9.74339 8.57806 9.7242 9.00502L10.1238 9.02298C10.1386 8.69327 10.2922 8.31245 10.5288 8.01423C10.768 7.71285 11.0602 7.53333 11.3333 7.53333V7.13333ZM9.72423 9.00436L9.4669 14.3397L9.86643 14.359L10.1238 9.02364L9.72423 9.00436ZM9.4669 14.3397C9.46606 14.3572 9.46178 14.3744 9.45431 14.3902L9.81609 14.5609C9.84596 14.4975 9.86307 14.4289 9.86644 14.3589L9.4669 14.3397ZM9.45431 14.3902C9.44683 14.4061 9.43631 14.4203 9.42335 14.4321L9.69229 14.7282C9.74414 14.6811 9.78621 14.6242 9.81609 14.5609L9.45431 14.3902ZM9.42335 14.4321C9.41038 14.4438 9.39522 14.453 9.37874 14.4589L9.5139 14.8353C9.57982 14.8117 9.64044 14.7753 9.69229 14.7282L9.42335 14.4321ZM9.37874 14.4589C9.36225 14.4648 9.34476 14.4674 9.32726 14.4666L9.30807 14.8661C9.37803 14.8695 9.44797 14.859 9.5139 14.8353L9.37874 14.4589ZM9.32726 14.4666C9.30977 14.4657 9.29261 14.4614 9.27677 14.454L9.10613 14.8158C9.16949 14.8456 9.2381 14.8627 9.30807 14.8661L9.32726 14.4666ZM9.27677 14.454C9.26092 14.4465 9.24671 14.436 9.23493 14.423L8.93884 14.692C8.98594 14.7438 9.04278 14.7859 9.10613 14.8158L9.27677 14.454ZM9.23493 14.423C9.22315 14.41 9.21405 14.3949 9.20813 14.3784L8.83166 14.5136C8.85532 14.5795 8.89175 14.6401 8.93884 14.692L9.23493 14.423ZM9.20813 14.3784C9.20221 14.3619 9.1996 14.3444 9.20044 14.3269L8.8009 14.3077C8.79754 14.3777 8.80799 14.4476 8.83166 14.5136L9.20813 14.3784ZM9.20043 14.327L9.45843 8.99233L9.0589 8.97301L8.8009 14.3077L9.20043 14.327ZM9.45847 8.99157C9.48068 8.49286 9.69882 7.95521 10.0446 7.54356C10.3904 7.13203 10.8452 6.86667 11.3333 6.86667V6.46667C10.6941 6.46667 10.136 6.81297 9.73837 7.28627C9.34085 7.75946 9.08532 8.37981 9.05886 8.97377L9.45847 8.99157ZM11.3333 6.86667H14V6.46667H11.3333V6.86667ZM14 6.86667C14.485 6.86667 14.9326 7.13739 15.2662 7.55387C15.5999 7.97058 15.8 8.51063 15.8 9H16.2C16.2 8.4107 15.9631 7.78409 15.5783 7.3038C15.1934 6.82328 14.641 6.46667 14 6.46667V6.86667ZM15.8 9V13.6667H16.2V9H15.8ZM15.8 13.6667C15.8 14.0138 15.5774 14.3108 15.2666 14.4208L15.4001 14.7979C15.8653 14.6332 16.2 14.1889 16.2 13.6667H15.8ZM15.1333 14.6093V21.6667H15.5333V14.6093H15.1333ZM15.1333 21.6667C15.1333 21.702 15.1193 21.7359 15.0943 21.7609L15.3771 22.0438C15.4771 21.9438 15.5333 21.8081 15.5333 21.6667H15.1333ZM15.0943 21.7609C15.0693 21.786 15.0354 21.8 15 21.8V22.2C15.1414 22.2 15.2771 22.1438 15.3771 22.0438L15.0943 21.7609ZM13 21.8C12.9646 21.8 12.9307 21.786 12.9057 21.7609L12.6229 22.0438C12.7229 22.1438 12.8586 22.2 13 22.2V21.8ZM12.9057 21.7609C12.8807 21.7359 12.8667 21.702 12.8667 21.6667H12.4667C12.4667 21.8081 12.5229 21.9438 12.6229 22.0438L12.9057 21.7609ZM12.8667 21.6667V15.6667H12.4667V21.6667H12.8667ZM12.8667 15.6667C12.8667 15.6313 12.8807 15.5974 12.9057 15.5724L12.6229 15.2895C12.5229 15.3896 12.4667 15.5252 12.4667 15.6667H12.8667ZM12.9057 15.5724C12.9307 15.5474 12.9646 15.5333 13 15.5333V15.1333C12.8586 15.1333 12.7229 15.1895 12.6229 15.2895L12.9057 15.5724ZM13 15.5333C13.0354 15.5333 13.0693 15.5474 13.0943 15.5724L13.3771 15.2895C13.2771 15.1895 13.1414 15.1333 13 15.1333V15.5333ZM13.0943 15.5724C13.1193 15.5974 13.1333 15.6313 13.1333 15.6667H13.5333C13.5333 15.5252 13.4771 15.3896 13.3771 15.2895L13.0943 15.5724ZM13.1333 15.6667V21.6667H13.5333V15.6667H13.1333ZM13.1333 21.6667C13.1333 21.702 13.1193 21.7359 13.0943 21.7609L13.3771 22.0438C13.4771 21.9438 13.5333 21.8081 13.5333 21.6667H13.1333ZM13.0943 21.7609C13.0693 21.786 13.0354 21.8 13 21.8V22.2C13.1414 22.2 13.2771 22.1438 13.3771 22.0438L13.0943 21.7609ZM10.6667 16.4667H8.66667V16.8667H10.6667V16.4667ZM8.66667 16.4667C8.40966 16.4667 8.2 16.2574 8.2 16H7.8C7.8 16.4786 8.18901 16.8667 8.66667 16.8667V16.4667ZM8.2 16V14.6667H7.8V16H8.2ZM8.2 14.6667C8.2 14.4093 8.40966 14.2 8.66667 14.2V13.8C8.18901 13.8 7.8 14.1881 7.8 14.6667H8.2ZM8.66667 14.2H10.6667V13.8H8.66667V14.2ZM10.6667 14.2C10.9237 14.2 11.1333 14.4093 11.1333 14.6667H11.5333C11.5333 14.1881 11.1443 13.8 10.6667 13.8V14.2ZM11.1333 14.6667V16H11.5333V14.6667H11.1333ZM11.1333 16C11.1333 16.2574 10.9237 16.4667 10.6667 16.4667V16.8667C11.1443 16.8667 11.5333 16.4786 11.5333 16H11.1333ZM8.46667 14.6667V16H8.86667V14.6667H8.46667ZM8.66667 16.2H10.6667V15.8H8.66667V16.2ZM10.8667 16V14.6667H10.4667V16H10.8667ZM10.6667 14.4667H8.66667V14.8667H10.6667V14.4667Z" fill="currentColor" mask="url(#path-1-outside-1_3299_17692)"/>
</svg>
