<svg width="24" height="24" viewBox="0 0 24 24" fill="none" xmlns="http://www.w3.org/2000/svg">
<path d="M5.88783 12.5002C6.67705 11.907 7.65817 11.5556 8.72138 11.5556C11.3289 11.5556 13.4428 13.6698 13.4428 16.2778C13.4428 17.3408 13.0915 18.3219 12.4988 19.1111M5.88783 12.5002C4.74147 13.3618 4 14.7332 4 16.2778C4 16.7656 4.07396 17.2362 4.21127 17.6788C4.46886 18.5092 4.28291 19.4348 4.11842 20.3076C4.05631 20.6371 4.35374 20.9054 4.6772 20.8168C5.47768 20.5976 6.27461 20.4107 7.09208 20.7113C7.59993 20.898 8.14875 21 8.72138 21C10.266 21 11.6374 20.2581 12.4988 19.1111M5.88783 12.5002C5.88783 8.07516 8.60333 4 13.4428 4C17.6152 4 20.9977 7.38274 20.9977 11.5556C20.9977 12.4503 20.8422 13.3087 20.5567 14.1052C20.1078 15.3578 20.5915 17.0349 20.8753 18.4195C20.9427 18.748 20.6445 19.0163 20.3243 18.9163C19.085 18.5295 17.6305 17.9853 16.4661 18.4762C15.2059 19.0074 13.8819 19.1111 12.4988 19.1111" stroke="currentColor" stroke-width="1.4" stroke-linecap="round" stroke-linejoin="round"/>
</svg>
