<svg width="24" height="24" viewBox="0 0 24 24" fill="none" xmlns="http://www.w3.org/2000/svg">
<g clip-path="url(#clip0_3797_23887)">
<path fill-rule="evenodd" clip-rule="evenodd" d="M17.4141 9.28897L11.8724 14.8306C11.7239 14.9791 11.5226 15.0625 11.3127 15.0625C11.1027 15.0625 10.9013 14.9791 10.7528 14.8306L7.58618 11.664L8.70576 10.5444L11.3127 13.1513L16.2945 8.16938L17.4141 9.28897Z" fill="currentColor"/>
<path fill-rule="evenodd" clip-rule="evenodd" d="M12.5001 4.37499C8.56505 4.37499 5.37508 7.56496 5.37508 11.5C5.37508 15.435 8.56505 18.625 12.5001 18.625C16.4351 18.625 19.6251 15.435 19.6251 11.5C19.6251 7.56496 16.4351 4.37499 12.5001 4.37499ZM3.79175 11.5C3.79175 6.69051 7.6906 2.79166 12.5001 2.79166C17.3095 2.79166 21.2084 6.69051 21.2084 11.5C21.2084 16.3094 17.3095 20.2083 12.5001 20.2083C7.6906 20.2083 3.79175 16.3094 3.79175 11.5Z" fill="currentColor"/>
</g>
<defs>
<clipPath id="clip0_3797_23887">
<rect width="19" height="19" fill="white" transform="translate(3 2)"/>
</clipPath>
</defs>
</svg>
