<svg width="24" height="24" viewBox="0 0 24 24" fill="none" xmlns="http://www.w3.org/2000/svg">
<path fill-rule="evenodd" clip-rule="evenodd" d="M16.2011 3.86365H19.0223C20.1895 3.86365 21.1364 4.81874 21.1364 5.99699V8.84174C21.1364 10.0191 20.1895 10.9751 19.0223 10.9751H16.2011C15.033 10.9751 14.0862 10.0191 14.0862 8.84174V5.99699C14.0862 4.81874 15.033 3.86365 16.2011 3.86365ZM5.97862 3.86365H8.79889C9.96699 3.86365 10.9139 4.81874 10.9139 5.99699V8.84174C10.9139 10.0191 9.96699 10.9751 8.79889 10.9751H5.97862C4.81052 10.9751 3.86365 10.0191 3.86365 8.84174V5.99699C3.86365 4.81874 4.81052 3.86365 5.97862 3.86365ZM5.97862 14.0249H8.79889C9.96699 14.0249 10.9139 14.98 10.9139 16.1592V19.003C10.9139 20.1813 9.96699 21.1364 8.79889 21.1364H5.97862C4.81052 21.1364 3.86365 20.1813 3.86365 19.003V16.1592C3.86365 14.98 4.81052 14.0249 5.97862 14.0249ZM16.2011 14.0249H19.0223C20.1895 14.0249 21.1364 14.98 21.1364 16.1592V19.003C21.1364 20.1813 20.1895 21.1364 19.0223 21.1364H16.2011C15.033 21.1364 14.0862 20.1813 14.0862 19.003V16.1592C14.0862 14.98 15.033 14.0249 16.2011 14.0249Z" stroke="currentColor" stroke-width="1.2" stroke-linecap="round" stroke-linejoin="round"/>
</svg>
