<svg width="24" height="24" viewBox="0 0 24 24" fill="none" xmlns="http://www.w3.org/2000/svg">
<path d="M16.75 5.88889V4M8.25 5.88889V4M4.23611 8.72222H20.7639M10.0444 21H14.9556C17.0713 21 18.1292 21 18.9373 20.6111C19.6481 20.2691 20.2261 19.7232 20.5882 19.0519C21 18.2887 21 17.2896 21 15.2914V10.6531C21 8.65487 21 7.65577 20.5882 6.89255C20.2261 6.22121 19.6481 5.67539 18.9373 5.33332C18.1292 4.94444 17.0713 4.94444 14.9556 4.94444H10.0444C7.92869 4.94444 6.87081 4.94444 6.0627 5.33332C5.35187 5.67539 4.77394 6.22121 4.41175 6.89255C4 7.65577 4 8.65487 4 10.6531V15.2914C4 17.2896 4 18.2887 4.41175 19.0519C4.77394 19.7232 5.35187 20.2691 6.0627 20.6111C6.87081 21 7.92869 21 10.0444 21Z" stroke="currentColor" stroke-width="1.4" stroke-linecap="round" stroke-linejoin="round"/>
</svg>
