<svg width="24" height="24" viewBox="0 0 24 24" fill="none" xmlns="http://www.w3.org/2000/svg">
<path d="M20.15 14.2C19.9246 14.2 19.7084 14.2896 19.549 14.449C19.3896 14.6084 19.3 14.8246 19.3 15.05V18.45C19.3 18.6754 19.2104 18.8916 19.051 19.051C18.8916 19.2104 18.6754 19.3 18.45 19.3H6.55C6.32457 19.3 6.10837 19.2104 5.94896 19.051C5.78955 18.8916 5.7 18.6754 5.7 18.45V15.05C5.7 14.8246 5.61045 14.6084 5.45104 14.449C5.29163 14.2896 5.07543 14.2 4.85 14.2C4.62457 14.2 4.40837 14.2896 4.24896 14.449C4.08955 14.6084 4 14.8246 4 15.05V18.45C4 19.1263 4.26866 19.7749 4.74688 20.2531C5.2251 20.7313 5.8737 21 6.55 21H18.45C19.1263 21 19.7749 20.7313 20.2531 20.2531C20.7313 19.7749 21 19.1263 21 18.45V15.05C21 14.8246 20.9104 14.6084 20.751 14.449C20.5916 14.2896 20.3754 14.2 20.15 14.2ZM11.8965 15.6535C11.9773 15.7309 12.0727 15.7915 12.177 15.832C12.2787 15.877 12.3888 15.9002 12.5 15.9002C12.6112 15.9002 12.7213 15.877 12.823 15.832C12.9273 15.7915 13.0227 15.7309 13.1035 15.6535L16.5035 12.2535C16.6636 12.0934 16.7535 11.8764 16.7535 11.65C16.7535 11.4236 16.6636 11.2066 16.5035 11.0465C16.3434 10.8864 16.1264 10.7965 15.9 10.7965C15.6736 10.7965 15.4566 10.8864 15.2965 11.0465L13.35 13.0015V4.85C13.35 4.62457 13.2604 4.40837 13.101 4.24896C12.9416 4.08955 12.7254 4 12.5 4C12.2746 4 12.0584 4.08955 11.899 4.24896C11.7396 4.40837 11.65 4.62457 11.65 4.85V13.0015L9.7035 11.0465C9.62425 10.9672 9.53016 10.9044 9.42661 10.8615C9.32306 10.8186 9.21208 10.7965 9.1 10.7965C8.98792 10.7965 8.87694 10.8186 8.77339 10.8615C8.66984 10.9044 8.57575 10.9672 8.4965 11.0465C8.41725 11.1258 8.35438 11.2198 8.31149 11.3234C8.2686 11.4269 8.24652 11.5379 8.24652 11.65C8.24652 11.7621 8.2686 11.8731 8.31149 11.9766C8.35438 12.0802 8.41725 12.1742 8.4965 12.2535L11.8965 15.6535Z" fill="currentColor"/>
</svg>
