<svg viewBox="0 0 24 24" fill="none"  xmlns="http://www.w3.org/2000/svg">
<path d="M10.7497 21.0006C10.1938 21.0006 9.68074 20.7868 9.29593 20.402L3.60928 14.7153C2.79691 13.903 2.79691 12.6203 3.60928 11.8079L11.22 4.19718C11.9041 3.51308 13.144 3 14.0847 3H18.959C20.0706 3 21.0113 3.94064 21.0113 5.05232V9.9266C21.0113 10.8672 20.4982 12.1072 19.8141 12.7913L12.2034 20.402C11.8186 20.7868 11.3055 21.0006 10.7497 21.0006ZM14.3888 3.82504C13.7902 3.82504 12.236 4.27319 11.8084 4.70076L4.01882 12.7723C3.71952 13.0716 4.029 13.9362 4.3283 14.2355L10.0149 19.9222C10.3142 20.2215 11.2526 20.2215 11.5092 19.9222L19.2987 11.8507C19.7263 11.4231 19.9899 10.1103 19.9899 9.46894V4.59467C19.9899 4.1671 19.6479 3.82504 19.2203 3.82504H14.3888Z" fill="currentColor"/>
<path d="M11.8397 11.5344C11.9346 11.3699 11.9787 11.181 11.9663 10.9915C11.9539 10.802 11.8855 10.6204 11.7699 10.4697C11.6543 10.3191 11.4966 10.2061 11.3168 10.145C11.137 10.084 10.9431 10.0776 10.7597 10.1268C10.5762 10.1759 10.4115 10.2783 10.2863 10.4211C10.161 10.5639 10.081 10.7406 10.0562 10.9289C10.0314 11.1172 10.063 11.3086 10.147 11.4789C10.231 11.6492 10.3636 11.7908 10.5281 11.8858C10.7487 12.0128 11.0106 12.0472 11.2565 11.9813C11.5024 11.9154 11.7121 11.7547 11.8397 11.5344ZM10.6019 10.8197C10.6483 10.7393 10.7174 10.6745 10.8007 10.6335C10.8839 10.5925 10.9774 10.577 11.0694 10.5891C11.1614 10.6012 11.2477 10.6403 11.3175 10.7015C11.3873 10.7627 11.4373 10.8432 11.4613 10.9328C11.4854 11.0225 11.4823 11.1172 11.4524 11.2051C11.4226 11.2929 11.3674 11.37 11.2938 11.4265C11.2201 11.4829 11.1314 11.5163 11.0388 11.5224C10.9462 11.5284 10.8539 11.5069 10.7736 11.4605C10.6659 11.3982 10.5874 11.2957 10.5552 11.1756C10.523 11.0555 10.5398 10.9275 10.6019 10.8197ZM11.4021 13.3123C11.2377 13.2173 11.0487 13.1733 10.8592 13.1857C10.6697 13.1981 10.4882 13.2665 10.3375 13.3821C10.1869 13.4977 10.0739 13.6554 10.0128 13.8352C9.95178 14.015 9.94543 14.2089 9.99459 14.3924C10.0437 14.5758 10.1462 14.7405 10.289 14.8658C10.4318 14.991 10.6085 15.071 10.7967 15.0958C10.985 15.1206 11.1764 15.089 11.3468 15.005C11.5171 14.921 11.6587 14.7884 11.7536 14.6239C11.8806 14.4033 11.915 14.1413 11.8491 13.8954C11.7832 13.6495 11.6224 13.4398 11.4021 13.3123ZM10.6875 14.5501C10.6071 14.5037 10.5423 14.4345 10.5013 14.3513C10.4603 14.2681 10.4448 14.1746 10.4569 14.0826C10.469 13.9906 10.5082 13.9042 10.5693 13.8345C10.6305 13.7647 10.711 13.7147 10.8006 13.6906C10.8903 13.6666 10.985 13.6697 11.0729 13.6996C11.1607 13.7294 11.2378 13.7846 11.2943 13.8582C11.3507 13.9318 11.3841 14.0205 11.3902 14.1131C11.3963 14.2057 11.3747 14.298 11.3284 14.3784C11.266 14.486 11.1636 14.5646 11.0434 14.5967C10.9233 14.6289 10.7953 14.6122 10.6875 14.5501ZM13.1442 11.761L8.60299 12.9778C8.54009 12.9946 8.48647 13.0358 8.45391 13.0922C8.42136 13.1486 8.41254 13.2156 8.42939 13.2785C8.44625 13.3414 8.4874 13.395 8.5438 13.4276C8.60019 13.4601 8.66721 13.4689 8.73011 13.4521L13.2713 12.2352C13.3334 12.2177 13.3861 12.1764 13.418 12.1203C13.4499 12.0641 13.4584 11.9977 13.4417 11.9354C13.425 11.8731 13.3844 11.8198 13.3287 11.7872C13.273 11.7545 13.2067 11.7451 13.1442 11.761Z" fill="currentColor"/>
<path d="M17.7263 8.01421C17.7263 8.96924 16.9521 9.74345 15.9971 9.74345C15.0421 9.74345 14.2678 8.96924 14.2678 8.01421C14.2678 7.05918 15.0421 6.28497 15.9971 6.28497C16.9521 6.28497 17.7263 7.05918 17.7263 8.01421Z" stroke="currentColor" stroke-width="0.720024"/>
</svg>
