<svg width="24" height="24" viewBox="0 0 24 24" fill="none" xmlns="http://www.w3.org/2000/svg">
<path d="M4.85714 6.42908H7.38929C7.47629 6.92655 7.73563 7.37736 8.12169 7.70222C8.50775 8.02707 8.9958 8.20516 9.5 8.20516C10.0042 8.20516 10.4923 8.02707 10.8783 7.70222C11.2644 7.37736 11.5237 6.92655 11.6107 6.42908H19.1429C19.2376 6.42908 19.3284 6.39138 19.3954 6.32429C19.4624 6.2572 19.5 6.16621 19.5 6.07133C19.5 5.97645 19.4624 5.88546 19.3954 5.81837C19.3284 5.75128 19.2376 5.71359 19.1429 5.71359H11.6107C11.5237 5.21611 11.2644 4.7653 10.8783 4.44044C10.4923 4.11559 10.0042 3.9375 9.5 3.9375C8.9958 3.9375 8.50775 4.11559 8.12169 4.44044C7.73563 4.7653 7.47629 5.21611 7.38929 5.71359H4.85714C4.76242 5.71359 4.67158 5.75128 4.6046 5.81837C4.53763 5.88546 4.5 5.97645 4.5 6.07133C4.5 6.16621 4.53763 6.2572 4.6046 6.32429C4.67158 6.39138 4.76242 6.42908 4.85714 6.42908ZM9.5 4.64035C9.78254 4.64035 10.0587 4.72428 10.2937 4.88152C10.5286 5.03875 10.7117 5.26224 10.8198 5.52372C10.928 5.7852 10.9562 6.07292 10.9011 6.3505C10.846 6.62808 10.7099 6.88306 10.5102 7.08319C10.3104 7.28331 10.0558 7.4196 9.7787 7.47481C9.50158 7.53003 9.21435 7.50169 8.95331 7.39338C8.69227 7.28507 8.46916 7.10166 8.31219 6.86634C8.15521 6.63102 8.07143 6.35435 8.07143 6.07133C8.07143 5.69181 8.22194 5.32784 8.48985 5.05948C8.75776 4.79111 9.12112 4.64035 9.5 4.64035ZM19.1429 11.0798H16.6107C16.5237 10.5823 16.2644 10.1315 15.8783 9.80661C15.4923 9.48176 15.0042 9.30367 14.5 9.30367C13.9958 9.30367 13.5077 9.48176 13.1217 9.80661C12.7356 10.1315 12.4763 10.5823 12.3893 11.0798H4.85714C4.76242 11.0798 4.67158 11.1174 4.6046 11.1845C4.53763 11.2516 4.5 11.3426 4.5 11.4375C4.5 11.5324 4.53763 11.6234 4.6046 11.6905C4.67158 11.7576 4.76242 11.7952 4.85714 11.7952H12.3893C12.4763 12.2927 12.7356 12.7435 13.1217 13.0684C13.5077 13.3932 13.9958 13.5713 14.5 13.5713C15.0042 13.5713 15.4923 13.3932 15.8783 13.0684C16.2644 12.7435 16.5237 12.2927 16.6107 11.7952H19.1429C19.2376 11.7952 19.3284 11.7576 19.3954 11.6905C19.4624 11.6234 19.5 11.5324 19.5 11.4375C19.5 11.3426 19.4624 11.2516 19.3954 11.1845C19.3284 11.1174 19.2376 11.0798 19.1429 11.0798ZM14.5 12.8685C14.2175 12.8685 13.9413 12.7846 13.7063 12.6273C13.4714 12.4701 13.2883 12.2466 13.1802 11.9851C13.072 11.7236 13.0438 11.4359 13.0989 11.1583C13.154 10.8807 13.2901 10.6258 13.4898 10.4256C13.6896 10.2255 13.9442 10.0892 14.2213 10.034C14.4984 9.9788 14.7857 10.0071 15.0467 10.1154C15.3077 10.2238 15.5308 10.4072 15.6878 10.6425C15.8448 10.8778 15.9286 11.1545 15.9286 11.4375C15.9286 11.817 15.7781 12.181 15.5102 12.4494C15.2422 12.7177 14.8789 12.8685 14.5 12.8685ZM19.1429 16.4459H11.6107C11.5237 15.9485 11.2644 15.4976 10.8783 15.1728C10.4923 14.8479 10.0042 14.6698 9.5 14.6698C8.9958 14.6698 8.50775 14.8479 8.12169 15.1728C7.73563 15.4976 7.47629 15.9485 7.38929 16.4459H4.85714C4.76242 16.4459 4.67158 16.4836 4.6046 16.5507C4.53763 16.6178 4.5 16.7088 4.5 16.8037C4.5 16.8986 4.53763 16.9895 4.6046 17.0566C4.67158 17.1237 4.76242 17.1614 4.85714 17.1614H7.38929C7.47629 17.6589 7.73563 18.1097 8.12169 18.4346C8.50775 18.7594 8.9958 18.9375 9.5 18.9375C10.0042 18.9375 10.4923 18.7594 10.8783 18.4346C11.2644 18.1097 11.5237 17.6589 11.6107 17.1614H19.1429C19.2376 17.1614 19.3284 17.1237 19.3954 17.0566C19.4624 16.9895 19.5 16.8986 19.5 16.8037C19.5 16.7088 19.4624 16.6178 19.3954 16.5507C19.3284 16.4836 19.2376 16.4459 19.1429 16.4459ZM9.5 18.2347C9.21745 18.2347 8.94126 18.1507 8.70633 17.9935C8.4714 17.8362 8.2883 17.6128 8.18017 17.3513C8.07205 17.0898 8.04376 16.8021 8.09888 16.5245C8.154 16.2469 8.29006 15.9919 8.48985 15.7918C8.68964 15.5917 8.94418 15.4554 9.2213 15.4002C9.49842 15.345 9.78565 15.3733 10.0467 15.4816C10.3077 15.5899 10.5308 15.7733 10.6878 16.0087C10.8448 16.244 10.9286 16.5207 10.9286 16.8037C10.9286 17.1832 10.7781 17.5472 10.5102 17.8155C10.2422 18.0839 9.87888 18.2347 9.5 18.2347Z" fill="currentColor" stroke="currentColor" stroke-width="0.3"/>
</svg>
