<svg width="24" height="24" viewBox="0 0 24 24" fill="none" xmlns="http://www.w3.org/2000/svg">
<path d="M10.2292 4H8.125C6.9514 4 6 4.9514 6 6.125V18.875C6 20.0486 6.9514 21 8.125 21H16.625C17.7986 21 18.75 20.0486 18.75 18.875V12.5M10.2292 4C11.4028 4 12.375 4.9514 12.375 6.125V8.25C12.375 9.42361 13.3264 10.375 14.5 10.375H16.625C17.7986 10.375 18.75 11.3264 18.75 12.5M10.2292 4C13.7141 4 18.75 9.06194 18.75 12.5M9.77778 16.75H15.4444M9.77778 13.9167H13.5556" stroke="currentColor" stroke-width="1.4" stroke-linecap="round" stroke-linejoin="round"/>
</svg>
