<svg width="24" height="24" viewBox="0 0 24 24" fill="none" xmlns="http://www.w3.org/2000/svg">
<path d="M11.7143 20.9595L11.3905 20.6762C4.0238 14.6857 2.04047 12.5809 2.04047 9.14046C2.04047 6.30713 4.34761 4.04047 7.14046 4.04047C9.48808 4.04047 10.8238 5.37618 11.7143 6.38808C12.6047 5.37618 13.9405 4.04047 16.2881 4.04047C19.1214 4.04047 21.3881 6.34761 21.3881 9.14046C21.3881 12.5809 19.4047 14.6857 12.0381 20.6762L11.7143 20.9595ZM7.14046 5.09284C4.91427 5.09284 3.09284 6.91427 3.09284 9.14046C3.09284 12.0952 4.95475 14.0381 11.7143 19.5833C18.4738 14.0381 20.3357 12.0952 20.3357 9.14046C20.3357 6.91427 18.5143 5.09284 16.2881 5.09284C14.2643 5.09284 13.1714 6.30713 12.3214 7.27856L11.7143 7.96666L11.1071 7.27856C10.2571 6.30713 9.16427 5.09284 7.14046 5.09284Z" fill="currentColor" stroke="currentColor" stroke-width="0.2"/>
</svg>
