<svg width="24" height="24" viewBox="0 0 24 24" fill="none" xmlns="http://www.w3.org/2000/svg">
<path d="M17.9902 1.5957C16.9814 1.48895 15.9675 1.43707 14.9531 1.44043C11.5898 1.44043 9.5 3.58197 9.5 7.03027V9.37109H6.6748C6.3988 9.37091 6.17493 9.59454 6.1748 9.87054V13.7217C6.17462 13.9977 6.39825 14.2215 6.67426 14.2217H9.5V21.9404C9.49982 22.2164 9.72345 22.4402 9.99945 22.4404H13.9775C14.2535 22.4406 14.4774 22.217 14.4775 21.941V14.2217H17.294C17.5452 14.2216 17.7575 14.0353 17.7901 13.7861L18.2872 9.93555C18.3229 9.66187 18.1299 9.41101 17.8562 9.37531C17.8346 9.3725 17.8129 9.37109 17.7911 9.37109H14.4775V7.41211C14.4775 6.44238 14.6729 6.03711 15.8857 6.03711L17.9248 6.03613C18.2008 6.03626 18.4246 5.81268 18.4248 5.53668V2.0918C18.4249 1.84082 18.239 1.62866 17.9902 1.5957ZM17.4248 5.03613L15.8857 5.03711C13.7275 5.03711 13.4775 6.39258 13.4775 7.41211V9.87115C13.4774 10.1471 13.701 10.371 13.977 10.3711H17.2227L16.8545 13.2217H13.9775C13.7015 13.2216 13.4777 13.4451 13.4775 13.7211V21.4404H10.5V13.7217C10.5002 13.4457 10.2766 13.2219 10.0006 13.2217H7.1748V10.3711H10C10.276 10.3713 10.4998 10.1476 10.5 9.87164V7.03027C10.5 4.15625 12.165 2.44043 14.9531 2.44043C15.9619 2.44043 16.873 2.49512 17.4248 2.54297V5.03613Z" fill="currentColor"/>
</svg>
