<svg width="24" height="24" viewBox="0 0 24 24" fill="none" xmlns="http://www.w3.org/2000/svg">
<path fill-rule="evenodd" clip-rule="evenodd" d="M4.37268 3L3.05365 4.29751L20.0272 21L21.3463 19.7021L4.37268 3Z" fill="currentColor"/>
<path d="M5.84039 7.03957L7.0819 8.26123C5.72284 9.3999 4.64061 10.8173 3.94128 12.0574L3.93915 12.0616C5.88681 15.2659 8.97718 18.2943 12.8776 17.835C13.9305 17.7109 14.9126 17.3568 15.81 16.8501L17.0668 18.0864C15.3176 19.1911 13.3125 19.7762 11.1399 19.487C7.22245 18.9657 4.01922 15.804 2 12.0909C2.94806 10.2138 4.24495 8.41797 5.84039 7.03957ZM8.66414 5.2291C9.75956 4.74882 10.9449 4.46635 12.2106 4.44623C12.2809 4.44581 13.1153 4.48479 13.4935 4.54598C13.7307 4.58453 13.9671 4.63273 14.2001 4.69266C17.9161 5.64525 20.6691 8.73648 22.4 11.9212C21.6738 13.3641 20.7228 14.7722 19.5886 15.9788L18.3846 14.794C19.2223 13.9056 19.9208 12.9165 20.4587 11.9572C20.4587 11.9572 19.9178 11.1014 19.5077 10.5641C19.244 10.2188 18.9668 9.88353 18.6755 9.56041C18.4455 9.3056 17.5523 8.44018 17.3398 8.25997C15.9139 7.0534 14.2397 6.10667 12.2315 6.1226C11.4538 6.13475 10.7059 6.28563 9.99594 6.5396L8.66414 5.2291Z" fill="currentColor"/>
<path fill-rule="evenodd" clip-rule="evenodd" d="M12.4606 9C13.8187 9 14.9214 10.1204 14.9214 11.5C14.9214 12.8799 13.8187 14 12.4606 14C11.1028 14 10 12.8799 10 11.5C10 10.1204 11.1028 9 12.4606 9Z" fill="currentColor"/>
</svg>
