<svg width="24" height="24" viewBox="0 0 24 24" fill="none" xmlns="http://www.w3.org/2000/svg">
<g clip-path="url(#clip0_76_421)">
<path fill-rule="evenodd" clip-rule="evenodd" d="M22.3596 14.2367C22.1645 14.4344 21.8476 14.4344 21.6525 14.2367L17.0754 9.61084C17.0426 9.58444 17.0144 9.55598 16.9883 9.52234L15.0272 7.54063C14.9945 7.51423 14.9663 7.48577 14.9402 7.45213L11.7527 4.23037L1.85352 14.2367C1.65843 14.4344 1.34148 14.4344 1.14639 14.2367C0.951309 14.0395 0.951309 13.7192 1.14639 13.522L11.3385 3.2201C11.3544 3.19578 11.3656 3.16783 11.3866 3.14558C11.4875 3.04414 11.6206 2.99704 11.7527 3.00015C11.8848 2.99704 12.018 3.04362 12.1188 3.14558C12.1409 3.16731 12.1506 3.19526 12.168 3.2201L14.825 5.90672L17.8972 9.01203L22.3596 13.522C22.5547 13.7192 22.5547 14.0395 22.3596 14.2367ZM4.66291 11.3969C4.98971 11.0666 4.8128 11.2454 5.09625 10.9589L5.2424 19.9298C5.2424 20.5017 5.70119 20.9649 6.26648 20.9649H9.33871V14.2367C9.33871 13.9505 9.56759 13.7192 9.85074 13.7192H13.947C14.2302 13.7192 14.4591 13.9505 14.4591 14.2367V20.9649H17.5313C18.0971 20.9649 18.5554 20.5017 18.5554 19.9298L18.4092 10.9589C18.5454 11.0965 18.6045 11.1563 18.8527 11.4071C19.4852 12.0396 19.1004 11.6574 19.4333 11.9939L19.5795 19.9298C19.5795 21.0731 18.6624 22 17.5313 22H6.26648C5.13539 22 4.21833 21.0731 4.21833 19.9298L4.07218 11.994C4.36063 11.7025 4.39015 11.6726 4.66291 11.3969ZM13.435 20.9644V14.7538H10.3628V20.9644H13.435Z" fill="currentColor"/>
</g>
<defs>
<clipPath id="clip0_76_421">
<rect width="22" height="19" fill="white" transform="translate(1 3)"/>
</clipPath>
</defs>
</svg>
