<svg width="24" height="24" viewBox="0 0 24 24" fill="none" xmlns="http://www.w3.org/2000/svg">
<path d="M16.3029 3H7.69714C5.10298 3 3 5.10298 3 7.69714V16.3029C3 18.897 5.10298 21 7.69714 21H16.3029C18.897 21 21 18.897 21 16.3029V7.69714C21 5.10298 18.897 3 16.3029 3Z" stroke="currentColor" stroke-width="1.3" stroke-linecap="round" stroke-linejoin="round"/>
<path d="M12 16.7143C14.6036 16.7143 16.7143 14.6036 16.7143 12C16.7143 9.39636 14.6036 7.28571 12 7.28571C9.39636 7.28571 7.28571 9.39636 7.28571 12C7.28571 14.6036 9.39636 16.7143 12 16.7143Z" stroke="currentColor" stroke-width="1.3" stroke-linecap="round" stroke-linejoin="round"/>
<path d="M17.1429 6.42855C17.3796 6.42855 17.5714 6.23668 17.5714 5.99998C17.5714 5.76329 17.3796 5.57141 17.1429 5.57141C16.9062 5.57141 16.7143 5.76329 16.7143 5.99998C16.7143 6.23668 16.9062 6.42855 17.1429 6.42855Z" stroke="currentColor" stroke-width="1.3" stroke-linecap="round" stroke-linejoin="round"/>
</svg>
