<svg width="24" height="24" viewBox="0 0 24 24" fill="none" xmlns="http://www.w3.org/2000/svg">
<path d="M12 3C10.22 3 8.47991 3.52784 6.99987 4.51677C5.51983 5.50571 4.36628 6.91131 3.68509 8.55585C3.0039 10.2004 2.82567 12.01 3.17294 13.7558C3.5202 15.5016 4.37737 17.1053 5.63604 18.364C6.89472 19.6226 8.49836 20.4798 10.2442 20.8271C11.99 21.1743 13.7996 20.9961 15.4442 20.3149C17.0887 19.6337 18.4943 18.4802 19.4832 17.0001C20.4722 15.5201 21 13.78 21 12C21 9.61305 20.0518 7.32387 18.364 5.63604C16.6761 3.94821 14.387 3 12 3ZM12 19.5C10.5166 19.5 9.0666 19.0601 7.83323 18.236C6.59986 17.4119 5.63856 16.2406 5.07091 14.8701C4.50325 13.4997 4.35473 11.9917 4.64411 10.5368C4.9335 9.08197 5.64781 7.74559 6.6967 6.6967C7.7456 5.64781 9.08197 4.9335 10.5368 4.64411C11.9917 4.35472 13.4997 4.50325 14.8701 5.0709C16.2406 5.63856 17.4119 6.59985 18.236 7.83322C19.0601 9.06659 19.5 10.5166 19.5 12C19.5 13.9891 18.7098 15.8968 17.3033 17.3033C15.8968 18.7098 13.9891 19.5 12 19.5Z" fill="currentColor"/>
<path d="M12 10.275C11.8011 10.275 11.6103 10.354 11.4697 10.4947C11.329 10.6353 11.25 10.8261 11.25 11.025V16.125C11.25 16.3239 11.329 16.5147 11.4697 16.6553C11.6103 16.796 11.8011 16.875 12 16.875C12.1989 16.875 12.3897 16.796 12.5303 16.6553C12.671 16.5147 12.75 16.3239 12.75 16.125V11.025C12.75 10.8261 12.671 10.6353 12.5303 10.4947C12.3897 10.354 12.1989 10.275 12 10.275ZM12 7.19998C11.797 7.20762 11.6045 7.2927 11.4623 7.43775C11.32 7.58281 11.2387 7.77684 11.235 7.97998V8.09998C11.2346 8.19784 11.2547 8.29469 11.2938 8.38439C11.3329 8.47408 11.3903 8.55465 11.4622 8.62097C11.5342 8.68728 11.6192 8.73789 11.7117 8.76957C11.8043 8.80125 11.9025 8.81331 12 8.80498C12.1965 8.79756 12.383 8.71616 12.5221 8.57708C12.6612 8.43801 12.7426 8.25152 12.75 8.05498V7.87498C12.7506 7.77966 12.731 7.68529 12.6925 7.5981C12.654 7.5109 12.5974 7.43285 12.5266 7.36908C12.4557 7.30531 12.3721 7.25727 12.2814 7.22813C12.1906 7.19898 12.0947 7.18939 12 7.19998Z" fill="currentColor"/>
</svg>
