<svg width="24" height="24" viewBox="0 0 24 24" fill="none" xmlns="http://www.w3.org/2000/svg">
<path d="M11.9958 2.24777C10.5842 2.24777 8.93445 2.65878 7.58522 3.7274C6.23598 4.79602 5.24956 6.56193 5.24956 9.00247C5.24956 11.5847 6.87091 14.1018 8.41573 16.0321C9.96056 17.9653 11.5054 19.3173 11.5054 19.3173C11.7888 19.5668 12.2112 19.5668 12.4946 19.3173C12.4946 19.3173 14.0394 17.9653 15.5843 16.0321C17.1291 14.1018 18.7504 11.5847 18.7504 9.00247C18.7504 6.5591 17.764 4.79602 16.4148 3.7274C15.0656 2.65878 13.4073 2.24777 11.9958 2.24777ZM11.9958 3.75008C13.1154 3.75008 14.4675 4.09305 15.4822 4.9009C16.5027 5.7059 17.251 6.9446 17.251 9.00247C17.251 10.9186 15.8961 13.294 14.4164 15.091C13.1607 16.616 12.5768 17.1518 12.0014 17.7272C11.4629 17.1716 10.7741 16.5593 9.58356 15.091C8.11527 13.2826 6.74903 10.9186 6.74903 9.00247C6.74903 6.9446 7.49734 5.7059 8.51494 4.9009C9.53538 4.09305 10.8789 3.74724 11.9958 3.74724V3.75008ZM11.9958 5.26372C9.93504 5.26372 8.2485 6.95593 8.2485 9.01947C8.2485 11.0802 9.93504 12.7667 11.9958 12.7667C14.0593 12.7667 15.7515 11.0802 15.7515 9.01947C15.7478 8.02453 15.3509 7.07141 14.6473 6.36788C13.9438 5.66434 12.9907 5.26745 11.9958 5.26372ZM11.9958 6.76602C13.2486 6.76602 14.252 7.76661 14.252 9.01947C14.2528 9.31545 14.1949 9.60865 14.0816 9.8821C13.9683 10.1556 13.802 10.4038 13.5922 10.6126C13.3824 10.8214 13.1332 10.9865 12.8592 11.0983C12.5852 11.2102 12.2917 11.2667 11.9958 11.2644C11.7005 11.2659 11.4079 11.2089 11.1349 11.0966C10.8618 10.9843 10.6137 10.819 10.405 10.6102C10.1962 10.4015 10.0309 10.1534 9.91863 9.88035C9.80634 9.60731 9.7493 9.31471 9.7508 9.01947C9.74893 8.72374 9.80565 8.43056 9.9177 8.15687C10.0298 7.88318 10.1949 7.63439 10.4036 7.42488C10.6124 7.21536 10.8605 7.04927 11.1338 6.93618C11.4071 6.8231 11.7 6.76527 11.9958 6.76602ZM8.23149 17.4267C8.21533 17.4289 8.19925 17.4318 8.1833 17.4352C6.55628 17.6024 5.32326 17.8462 4.4899 18.209C4.07323 18.3904 3.69623 18.5662 3.46947 19.0566C3.35523 19.3256 3.35014 19.6285 3.4553 19.9013C3.56018 20.1592 3.73592 20.3321 3.91449 20.4682C4.6288 21.0067 5.65206 21.2193 7.04665 21.4262C8.44125 21.6332 10.1618 21.7522 11.9958 21.7522C13.8325 21.7522 15.5503 21.6332 16.9448 21.4262C18.3423 21.2193 19.3684 21.0067 20.0855 20.4682C20.2875 20.3271 20.4465 20.1329 20.5447 19.9069C20.6487 19.6318 20.6426 19.3273 20.5277 19.0566C20.3009 18.5634 19.9268 18.3904 19.5073 18.2062C18.6767 17.8462 17.4494 17.6024 15.8224 17.4352C14.8671 17.3558 14.6375 18.7533 15.6665 18.929C16.9675 19.0622 18.0588 19.2748 18.6881 19.4959C18.2516 19.6546 17.611 19.8105 16.7238 19.9409C15.4255 20.1337 13.7673 20.2527 11.9958 20.2527C10.227 20.2527 8.5688 20.1337 7.27058 19.9409C6.60129 19.8568 5.94161 19.7088 5.30058 19.4987C6.29061 19.2106 7.30641 19.0197 8.33353 18.929C9.31145 18.7816 9.17822 17.4352 8.23149 17.4267Z" fill="currentColor"/>
</svg>
