<svg width="24" height="24" viewBox="0 0 24 24" fill="none" xmlns="http://www.w3.org/2000/svg">
<path d="M14.7428 10.4348C14.9697 10.4348 15.1538 10.2497 15.1538 10.0217V5.06521C15.1538 3.92687 14.2322 3 13.0985 3H4.05527C2.9216 3 2 3.92687 2 5.06521V19.9348C2 21.0731 2.9216 22 4.05527 22H13.0985C14.2322 22 15.1538 21.0731 15.1538 19.9348V14.9783C15.1538 14.7503 14.9696 14.5652 14.7427 14.5652C14.5158 14.5652 14.3317 14.7503 14.3317 14.9783V19.9348C14.3317 20.618 13.7784 21.1739 13.0985 21.1739H4.05527C3.37537 21.1739 2.8221 20.618 2.8221 19.9348V5.06521C2.8221 4.38202 3.37537 3.82608 4.05527 3.82608H13.0985C13.7784 3.82608 14.3317 4.38202 14.3317 5.06521V10.0217C14.3317 10.2497 14.5159 10.4348 14.7428 10.4348Z" fill="currentColor" stroke="currentColor" stroke-width="0.3"/>
<path d="M7.28734 12.7433L20.5845 12.7433C20.8138 12.7433 21 12.5251 21 12.2561C21 11.9872 20.8138 11.769 20.5845 11.769L7.28734 11.769C7.05797 11.769 6.87179 11.9873 6.87179 12.2562C6.87179 12.5251 7.05797 12.7433 7.28734 12.7433Z" fill="currentColor" stroke="currentColor" stroke-width="0.3"/>
<path d="M6.99649 12.5511L9.55449 15.0572C9.72076 15.2201 9.99107 15.2201 10.1573 15.0572C10.3236 14.8943 10.3236 14.6295 10.1573 14.4666L7.90118 12.2562L10.1573 10.0458C10.3236 9.88293 10.3236 9.6181 10.1573 9.45521C10.0738 9.37419 9.96465 9.33323 9.8555 9.33323C9.74634 9.33323 9.63723 9.37415 9.55449 9.45434L6.99649 11.9604C6.83022 12.1234 6.83022 12.3882 6.99649 12.5511Z" fill="currentColor" stroke="currentColor" stroke-width="0.3"/>
</svg>
