<svg width="24" height="24" viewBox="0 0 24 24" fill="none" xmlns="http://www.w3.org/2000/svg">
<path d="M14.7428 9.43479C14.9697 9.43479 15.1538 9.24974 15.1538 9.02174V4.06521C15.1538 2.92687 14.2322 2 13.0985 2H4.05527C2.9216 2 2 2.92687 2 4.06521V18.9348C2 20.0731 2.9216 21 4.05527 21H13.0985C14.2322 21 15.1538 20.0731 15.1538 18.9348V13.9783C15.1538 13.7503 14.9696 13.5652 14.7427 13.5652C14.5158 13.5652 14.3317 13.7503 14.3317 13.9783V18.9348C14.3317 19.618 13.7784 20.1739 13.0985 20.1739H4.05527C3.37537 20.1739 2.8221 19.618 2.8221 18.9348V4.06521C2.8221 3.38202 3.37537 2.82608 4.05527 2.82608H13.0985C13.7784 2.82608 14.3317 3.38202 14.3317 4.06521V9.02174C14.3317 9.24974 14.5159 9.43479 14.7428 9.43479Z" fill="currentColor" stroke="currentColor" stroke-width="0.3"/>
<path d="M20.5844 10.7692H7.28731C7.05794 10.7692 6.87177 10.9875 6.87177 11.2564C6.87177 11.5254 7.05794 11.7436 7.28731 11.7436H20.5844C20.8138 11.7436 21 11.5253 21 11.2564C21 10.9875 20.8138 10.7692 20.5844 10.7692Z" fill="currentColor" stroke="currentColor" stroke-width="0.3"/>
<path d="M20.8753 10.9616L18.3173 8.45549C18.151 8.29259 17.8807 8.29259 17.7144 8.45549C17.5482 8.61838 17.5482 8.88321 17.7144 9.0461L19.9706 11.2565L17.7144 13.4669C17.5482 13.6298 17.5482 13.8946 17.7144 14.0575C17.798 14.1385 17.9071 14.1795 18.0163 14.1795C18.1254 14.1795 18.2345 14.1385 18.3173 14.0584L20.8753 11.5522C21.0415 11.3893 21.0415 11.1245 20.8753 10.9616Z" fill="currentColor" stroke="currentColor" stroke-width="0.3"/>
</svg>
