<svg width="24" height="24" viewBox="0 0 24 24" fill="none" xmlns="http://www.w3.org/2000/svg">
<path d="M17.3625 10.7625H16.2375V8.3625C16.2375 6.0375 14.325 4.125 12 4.125C9.67501 4.125 7.76251 6.0375 7.76251 8.3625V10.7625H6.63751V8.3625C6.63751 5.4 9.03751 3 12 3C14.9625 3 17.3625 5.4 17.3625 8.3625V10.7625Z" fill="#3B3B3B"/>
<path d="M16.8 20.9625H7.20002C6.22502 20.9625 5.40002 20.1375 5.40002 19.1625V11.9625C5.40002 10.9875 6.22502 10.1625 7.20002 10.1625H16.8C17.775 10.1625 18.6 10.9875 18.6 11.9625V19.1625C18.6 20.175 17.775 20.9625 16.8 20.9625ZM7.20002 11.3625C6.86252 11.3625 6.60002 11.625 6.60002 11.9625V19.1625C6.60002 19.5 6.86252 19.7625 7.20002 19.7625H16.8C17.1375 19.7625 17.4 19.5 17.4 19.1625V11.9625C17.4 11.625 17.1375 11.3625 16.8 11.3625H7.20002Z" fill="#3B3B3B"/>
<path d="M13.2 13.7625C13.2 14.4375 12.675 14.9625 12 14.9625C11.325 14.9625 10.8 14.4375 10.8 13.7625C10.8 13.0875 11.325 12.5625 12 12.5625C12.675 12.5625 13.2 13.125 13.2 13.7625Z" fill="#3B3B3B"/>
<path d="M12.3 13.7625H11.7L11.1 17.3625H12.9L12.3 13.7625Z" fill="#3B3B3B"/>
</svg>
