<svg width="24" height="24" viewBox="0 0 24 24" fill="none" xmlns="http://www.w3.org/2000/svg">
<path d="M7.50059 9.00001C7.50035 9.00001 7.50078 9.00001 7.50059 9.00001H3.49998C3.22398 8.99982 3.00017 9.22346 2.99998 9.4994C2.99998 9.49921 2.99998 9.49964 2.99998 9.4994V21.5C2.9998 21.776 3.22343 21.9998 3.49937 22C3.49919 22 3.49962 22 3.49937 22H7.49998C7.77598 22.0002 7.9998 21.7766 7.99998 21.5006C7.99998 21.5004 7.99998 21.5007 7.99998 21.5006V9.50001C8.00017 9.22401 7.77653 9.00019 7.50059 9.00001ZM6.99998 21H3.99998V10H6.99998V21ZM18 9.00001C16.9151 9.00007 15.8606 9.3581 15 10.0186V9.50001C15.0002 9.22401 14.7765 9.00019 14.5006 9.00001C14.5003 9.00001 14.5008 9.00001 14.5006 9.00001H10.5C10.224 8.99982 10.0002 9.22346 9.99998 9.4994C9.99998 9.49921 9.99998 9.49964 9.99998 9.4994V21.5C9.9998 21.776 10.2234 21.9998 10.4994 22C10.4992 22 10.4996 22 10.4994 22H14.5C14.776 22.0002 14.9998 21.7766 15 21.5006C15 21.5004 15 21.5007 15 21.5006V16C15 15.1716 15.6716 14.5 16.5 14.5C17.3284 14.5 18 15.1716 18 16V21.5C17.9998 21.776 18.2234 21.9998 18.4994 22C18.4992 22 18.4996 22 18.4994 22H22.5C22.776 22.0002 22.9998 21.7766 23 21.5006C23 21.5004 23 21.5007 23 21.5006V14C22.9967 11.2399 20.7601 9.00324 18 9.00001ZM22 21H19V16C19 14.6193 17.8807 13.5 16.5 13.5C15.1192 13.5 14 14.6193 14 16V21H11V10H14V11.2031C14 11.4156 14.1344 11.6048 14.335 11.6748C14.5351 11.747 14.759 11.6828 14.8907 11.5156C16.2532 9.78882 18.7576 9.4936 20.4844 10.8562C21.4463 11.6152 22.0053 12.7747 22 14V21ZM5.86796 2.00184C5.75035 1.9936 5.63231 1.99299 5.51463 2.00001C4.00535 1.89692 2.69829 3.03687 2.5952 4.54615C2.59105 4.60688 2.58897 4.66767 2.58885 4.72852C2.57585 6.22498 3.77842 7.44861 5.27488 7.46162C5.33598 7.46216 5.39702 7.46058 5.45799 7.45698H5.48631C6.99272 7.56238 8.2993 6.42664 8.40471 4.92023C8.51011 3.41382 7.37437 2.10724 5.86796 2.00184ZM5.83342 6.45985C5.71794 6.47047 5.60161 6.46955 5.48631 6.45698H5.45799C4.50187 6.53046 3.66728 5.81501 3.59379 4.85889C3.52031 3.90284 4.23576 3.06818 5.19188 2.9947C5.29942 2.98646 5.40745 2.98823 5.51463 3.00001C6.47001 2.91199 7.3159 3.61512 7.40397 4.5705C7.49199 5.52595 6.78886 6.37183 5.83342 6.45985Z" fill="currentColor"/>
</svg>
