<svg width="24" height="24" viewBox="0 0 24 24" fill="none" xmlns="http://www.w3.org/2000/svg">
<path fill-rule="evenodd" clip-rule="evenodd" d="M20.9743 5H3.02566C2.46152 5 2 5.46152 2 6.02562V17.3077C2 17.8717 2.46152 18.3333 3.02566 18.3333H20.9743C21.5384 18.3333 22 17.8718 22 17.3077V6.02562C22 5.46152 21.5384 5 20.9743 5ZM20.75 5.66671L12.59 11.8334C12.4462 11.9429 12.2254 12.0114 11.9999 12.0104C11.7746 12.0114 11.5538 11.9429 11.4099 11.8334L3.25 5.66671H20.75ZM14.999 10.9027C14.7784 10.6475 14.6497 10.4985 14.6497 10.4985C14.5161 10.3334 15.114 9.84926 15.2476 10.0144L15.6087 10.4388L14.999 10.9027ZM9.00376 10.9049L10.9487 12.3846C11.2561 12.6136 11.6302 12.7144 11.9999 12.7154C12.3691 12.7146 12.7435 12.6138 13.0511 12.3846L14.999 10.9027C16.3167 12.4275 20.9127 17.7459 20.9167 17.75H3.16667C3.17061 17.7457 7.70107 12.4326 9.00376 10.9049ZM9.00376 10.9049L8.39118 10.4388L8.75228 10.0144C8.88587 9.84922 9.4838 10.3334 9.35025 10.4985C9.35025 10.4985 9.22251 10.6483 9.00376 10.9049ZM15.6087 10.4388L21.3333 17.1667V6.08337L15.6087 10.4388ZM2.66667 17.1667L8.39118 10.4388L2.66667 6.08337V17.1667Z" fill="currentColor"/>
<path d="M22 6.02562H22.15V6.02561L22 6.02562ZM12.59 11.8334L12.4995 11.7138L12.4991 11.7141L12.59 11.8334ZM20.75 5.66671L20.8404 5.78638L21.1973 5.51671H20.75V5.66671ZM11.9999 12.0104L12.0006 11.8603L11.9993 11.8604L11.9999 12.0104ZM11.4099 11.8334L11.5008 11.7141L11.5004 11.7138L11.4099 11.8334ZM3.25 5.66671V5.51671H2.80273L3.15956 5.78638L3.25 5.66671ZM14.6497 10.4985L14.5331 10.5929L14.5362 10.5966L14.6497 10.4985ZM15.2476 10.0144L15.131 10.1088L15.1334 10.1116L15.2476 10.0144ZM10.9487 12.3846L10.8578 12.504L10.8591 12.5049L10.9487 12.3846ZM11.9999 12.7154L11.9995 12.8654L12.0002 12.8654L11.9999 12.7154ZM13.0511 12.3846L13.1408 12.5049L13.142 12.504L13.0511 12.3846ZM20.9167 17.75V17.9H21.2666L21.0253 17.6466L20.9167 17.75ZM3.16667 17.75L3.05522 17.6496L2.82966 17.9H3.16667V17.75ZM8.75228 10.0144L8.86656 10.1116L8.8689 10.1087L8.75228 10.0144ZM9.35025 10.4985L9.46443 10.5959L9.46687 10.5928L9.35025 10.4985ZM21.3333 17.1667L21.2191 17.2639L21.4833 17.5745V17.1667H21.3333ZM21.3333 6.08337H21.4833V5.78077L21.2425 5.964L21.3333 6.08337ZM2.66667 17.1667H2.51667V17.5745L2.78091 17.2639L2.66667 17.1667ZM2.66667 6.08337L2.75749 5.964L2.51667 5.78077V6.08337H2.66667ZM3.02566 5.15H20.9743V4.85H3.02566V5.15ZM2.15 6.02562C2.15 5.54437 2.54436 5.15 3.02566 5.15V4.85C2.37868 4.85 1.85 5.37868 1.85 6.02562H2.15ZM2.15 17.3077V6.02562H1.85V17.3077H2.15ZM3.02566 18.1833C2.54437 18.1833 2.15 17.7889 2.15 17.3077H1.85C1.85 17.9546 2.37867 18.4833 3.02566 18.4833V18.1833ZM20.9743 18.1833H3.02566V18.4833H20.9743V18.1833ZM21.85 17.3077C21.85 17.789 21.4556 18.1833 20.9743 18.1833V18.4833C21.6212 18.4833 22.15 17.9547 22.15 17.3077H21.85ZM21.85 6.02562V17.3077H22.15V6.02562H21.85ZM20.9743 5.15C21.4556 5.15 21.85 5.54437 21.85 6.02563L22.15 6.02561C22.15 5.37868 21.6213 4.85 20.9743 4.85V5.15ZM12.6804 11.9531L20.8404 5.78638L20.6596 5.54704L12.4995 11.7138L12.6804 11.9531ZM11.9993 12.1604C12.2513 12.1615 12.506 12.0858 12.6808 11.9528L12.4991 11.7141C12.3863 11.7999 12.1994 11.8613 12.0006 11.8604L11.9993 12.1604ZM11.3191 11.9528C11.494 12.0858 11.7486 12.1615 12.0006 12.1604L11.9993 11.8604C11.8005 11.8613 11.6137 11.8 11.5008 11.7141L11.3191 11.9528ZM3.15956 5.78638L11.3195 11.9531L11.5004 11.7138L3.34044 5.54704L3.15956 5.78638ZM20.75 5.51671H3.25V5.81671H20.75V5.51671ZM14.6497 10.4985C14.5362 10.5966 14.5362 10.5966 14.5362 10.5966C14.5362 10.5966 14.5362 10.5966 14.5362 10.5966C14.5362 10.5966 14.5362 10.5966 14.5362 10.5966C14.5363 10.5966 14.5363 10.5967 14.5363 10.5967C14.5364 10.5968 14.5365 10.5969 14.5366 10.597C14.5368 10.5973 14.5372 10.5978 14.5377 10.5983C14.5387 10.5995 14.5402 10.6012 14.5422 10.6035C14.5461 10.6081 14.552 10.6149 14.5598 10.6239C14.5753 10.6418 14.5983 10.6684 14.6281 10.703C14.6879 10.7721 14.7752 10.8731 14.8855 11.0007L15.1125 10.8046C15.0022 10.677 14.9149 10.576 14.8551 10.5068C14.8253 10.4722 14.8023 10.4457 14.7868 10.4277C14.779 10.4187 14.7731 10.4119 14.7692 10.4073C14.7672 10.4051 14.7657 10.4033 14.7647 10.4022C14.7642 10.4016 14.7638 10.4012 14.7636 10.4009C14.7635 10.4007 14.7634 10.4006 14.7633 10.4005C14.7633 10.4005 14.7632 10.4005 14.7632 10.4005C14.7632 10.4005 14.7632 10.4005 14.7632 10.4004C14.7632 10.4004 14.7632 10.4004 14.7632 10.4004C14.7632 10.4004 14.7632 10.4004 14.6497 10.4985ZM15.3643 9.92003C15.3158 9.86009 15.2494 9.83608 15.1897 9.83145C15.1332 9.82706 15.0779 9.8391 15.0308 9.85514C14.9359 9.88739 14.8374 9.94857 14.7541 10.016C14.6708 10.0835 14.5904 10.1672 14.5391 10.2532C14.5136 10.296 14.4903 10.3476 14.4829 10.4037C14.475 10.463 14.4846 10.533 14.5331 10.5929L14.7663 10.4042C14.7814 10.4228 14.7805 10.4415 14.7802 10.4433C14.7802 10.4434 14.7807 10.4402 14.7834 10.4333C14.7861 10.4265 14.7903 10.4177 14.7968 10.4068C14.8243 10.3608 14.8767 10.3028 14.9429 10.2492C15.009 10.1956 15.0767 10.1564 15.1274 10.1392C15.1394 10.1351 15.1489 10.1327 15.1561 10.1315C15.1634 10.1303 15.1666 10.1306 15.1665 10.1306C15.1646 10.1304 15.1461 10.1274 15.131 10.1087L15.3643 9.92003ZM15.723 10.3415L15.3619 9.91717L15.1334 10.1116L15.4945 10.536L15.723 10.3415ZM15.0898 11.022L15.6995 10.5581L15.5179 10.3194L14.9081 10.7833L15.0898 11.022ZM8.91294 11.0242L10.8578 12.504L11.0395 12.2652L9.09459 10.7855L8.91294 11.0242ZM10.8591 12.5049C11.1967 12.7564 11.6036 12.8643 11.9995 12.8654L12.0003 12.5654C11.6567 12.5644 11.3155 12.4708 11.0382 12.2643L10.8591 12.5049ZM12.0002 12.8654C12.3956 12.8645 12.8029 12.7566 13.1408 12.5049L12.9615 12.2643C12.6841 12.471 12.3426 12.5647 11.9996 12.5654L12.0002 12.8654ZM13.142 12.504L15.0898 11.022L14.9081 10.7833L12.9603 12.2652L13.142 12.504ZM14.8855 11.0007C16.2001 12.522 20.8007 17.8458 20.808 17.8535L21.0253 17.6466C21.0266 17.648 19.8813 16.3229 18.564 14.7985C17.2498 13.2778 15.7713 11.567 15.1125 10.8046L14.8855 11.0007ZM20.9167 17.6H3.16667V17.9H20.9167V17.6ZM3.27811 17.8504C3.28388 17.844 7.81698 12.5278 9.1179 11.0022L8.88962 10.8075C8.23828 11.5714 6.77999 13.2816 5.48405 14.8014C4.83608 15.5613 4.22869 16.2736 3.78305 16.7961C3.33566 17.3208 3.05439 17.6506 3.05522 17.6496L3.27811 17.8504ZM8.30035 10.5582L8.91294 11.0242L9.09459 10.7855L8.482 10.3194L8.30035 10.5582ZM8.63804 9.91717L8.27693 10.3416L8.50542 10.536L8.86652 10.1116L8.63804 9.91717ZM9.46687 10.5928C9.51535 10.5329 9.52496 10.463 9.51706 10.4037C9.50957 10.3475 9.48629 10.2959 9.46079 10.2532C9.40951 10.1672 9.32916 10.0835 9.24584 10.016C9.16252 9.94855 9.06397 9.88737 8.96916 9.85512C8.92202 9.83909 8.8667 9.82705 8.81019 9.83144C8.75053 9.83608 8.68415 9.8601 8.63566 9.92004L8.8689 10.1087C8.85382 10.1274 8.83534 10.1304 8.83343 10.1305C8.83333 10.1305 8.83658 10.1303 8.84385 10.1315C8.851 10.1327 8.86057 10.1351 8.87255 10.1391C8.92325 10.1564 8.99088 10.1956 9.05705 10.2492C9.12322 10.3027 9.17566 10.3608 9.2031 10.4068C9.20959 10.4177 9.21387 10.4266 9.21653 10.4333C9.21924 10.4402 9.2197 10.4434 9.21969 10.4434C9.21945 10.4415 9.21853 10.4228 9.23362 10.4042L9.46687 10.5928ZM9.1179 11.0022C9.22728 10.8739 9.3139 10.7723 9.37318 10.7028C9.40281 10.6681 9.42562 10.6413 9.44101 10.6233C9.44871 10.6142 9.45455 10.6074 9.45847 10.6028C9.46043 10.6005 9.46191 10.5987 9.4629 10.5976C9.46339 10.597 9.46377 10.5966 9.46401 10.5963C9.46414 10.5961 9.46423 10.596 9.46429 10.596C9.46432 10.5959 9.46435 10.5959 9.46436 10.5959C9.46437 10.5959 9.46438 10.5959 9.46438 10.5958C9.46438 10.5958 9.46439 10.5958 9.46439 10.5958C9.46439 10.5958 9.46439 10.5958 9.35025 10.4985C9.23611 10.4012 9.23611 10.4012 9.23611 10.4012C9.23611 10.4012 9.23611 10.4012 9.2361 10.4012C9.2361 10.4012 9.23609 10.4012 9.23609 10.4012C9.23607 10.4012 9.23605 10.4013 9.23602 10.4013C9.23595 10.4014 9.23586 10.4015 9.23574 10.4016C9.23549 10.4019 9.23512 10.4024 9.23462 10.4029C9.23363 10.4041 9.23215 10.4058 9.23019 10.4081C9.22627 10.4127 9.22043 10.4196 9.21273 10.4286C9.19734 10.4467 9.17454 10.4734 9.1449 10.5082C9.08562 10.5777 8.999 10.6793 8.88962 10.8075L9.1179 11.0022ZM21.4476 17.0695L15.723 10.3415L15.4945 10.536L21.2191 17.2639L21.4476 17.0695ZM21.1833 6.08337V17.1667H21.4833V6.08337H21.1833ZM15.6995 10.5581L21.4242 6.20275L21.2425 5.964L15.5179 10.3194L15.6995 10.5581ZM8.27693 10.3416L2.55242 17.0695L2.78091 17.2639L8.50542 10.536L8.27693 10.3416ZM2.57584 6.20275L8.30035 10.5582L8.482 10.3194L2.75749 5.964L2.57584 6.20275ZM2.81667 17.1667V6.08337H2.51667V17.1667H2.81667Z" fill="currentColor"/>
</svg>
