<svg width="24" height="24" viewBox="0 0 24 24" fill="none" xmlns="http://www.w3.org/2000/svg">
<path d="M4.2448 16.7542C3 15.7583 3 15.0056 3 11.8C3 8.59445 3 6.99167 4.2448 5.99584C5.48959 5 7.49306 5 11.5 5C15.5069 5 17.5104 5 18.7552 5.99584C20 6.99167 20 8.59445 20 11.8C20 15.0056 20 15.7583 18.7552 16.7542C17.5104 17.75 15.5069 17.75 11.5 17.75H11.5C9.36694 17.75 8.26977 19.2269 6.4 20.3V17.57C5.47015 17.4317 4.78582 17.187 4.2448 16.7542Z" stroke="currentColor" stroke-width="1.4" stroke-linecap="round" stroke-linejoin="round"/>
</svg>
