<svg width="24" height="24" viewBox="0 0 24 24" fill="none" xmlns="http://www.w3.org/2000/svg">
<path d="M9.53313 7.84962C9.69703 8.01683 9.78883 8.24164 9.78883 8.47577C9.78883 8.70991 9.69703 8.93472 9.53313 9.10193L8.10193 10.5331C7.93472 10.697 7.70991 10.7888 7.47577 10.7888C7.24164 10.7888 7.01683 10.697 6.84962 10.5331L4.44275 8.12626C3.97599 7.6595 3.18992 7.81205 3.07788 8.46257C2.97168 9.07918 2.97352 9.71312 3.08693 10.3356C3.28249 11.4089 3.80052 12.3971 4.57197 13.1686C5.34342 13.94 6.33165 14.4581 7.40498 14.6536C8.04688 14.7706 8.70098 14.7689 9.33571 14.6524C10.109 14.5105 10.9477 14.6312 11.5036 15.1872L16.7607 20.4442C17.1166 20.8001 17.5992 21 18.1025 21C18.6057 21 19.0884 20.8001 19.4442 20.4442C19.8001 20.0884 20 19.6057 20 19.1025C20 18.5992 19.8001 18.1166 19.4442 17.7607L14.1872 12.5036C13.6312 11.9477 13.5105 11.109 13.6524 10.3357C13.7689 9.70098 13.7706 9.04688 13.6536 8.40498C13.4581 7.33165 12.94 6.34342 12.1686 5.57197C11.3971 4.80052 10.4089 4.28249 9.33558 4.08693C8.71312 3.97352 8.07918 3.97168 7.46257 4.07788C6.81205 4.18992 6.6595 4.97599 7.12625 5.44274L9.53313 7.84962Z" stroke="currentColor" stroke-width="1.4" stroke-linecap="round" stroke-linejoin="round"/>
</svg>
