<svg width="24" height="24" viewBox="0 0 24 24" fill="none" xmlns="http://www.w3.org/2000/svg">
<path d="M22.2559 18.2559C22.4122 18.0996 22.5 17.8877 22.5 17.6667V6.33333C22.5 6.11232 22.4122 5.90036 22.2559 5.74408C22.0996 5.5878 21.8877 5.5 21.6667 5.5H2.33333C2.11232 5.5 1.90036 5.5878 1.74408 5.74408C1.5878 5.90036 1.5 6.11232 1.5 6.33333V17.6667C1.5 17.8877 1.5878 18.0996 1.74408 18.2559C1.90036 18.4122 2.11232 18.5 2.33333 18.5H21.6667C21.8877 18.5 22.0996 18.4122 22.2559 18.2559Z" stroke="currentColor"/>
<path d="M20 9.90008C19.4961 9.90008 19.0128 9.6999 18.6565 9.34358C18.3002 8.98727 18.1 8.50399 18.1 8.00008C18.1 7.88515 18.0544 7.77493 17.9731 7.69367C17.8918 7.6124 17.7816 7.56675 17.6667 7.56675H6.33334C6.21841 7.56675 6.10819 7.6124 6.02693 7.69367C5.94566 7.77493 5.90001 7.88515 5.90001 8.00008C5.90001 8.50399 5.69983 8.98727 5.34351 9.34358C4.98719 9.6999 4.50392 9.90008 4.00001 9.90008C3.88508 9.90008 3.77486 9.94574 3.69359 10.027C3.61233 10.1083 3.56667 10.2185 3.56667 10.3334V13.6667C3.56667 13.7817 3.61233 13.8919 3.69359 13.9732C3.77486 14.0544 3.88508 14.1001 4.00001 14.1001C4.50392 14.1001 4.98719 14.3003 5.34351 14.6566C5.69983 15.0129 5.90001 15.4962 5.90001 16.0001C5.90001 16.115 5.94566 16.2252 6.02693 16.3065C6.10819 16.3878 6.21841 16.4334 6.33334 16.4334H17.6667C17.7816 16.4334 17.8918 16.3878 17.9731 16.3065C18.0544 16.2252 18.1 16.115 18.1 16.0001C18.1 15.4962 18.3002 15.0129 18.6565 14.6566C19.0128 14.3003 19.4961 14.1001 20 14.1001C20.1149 14.1001 20.2252 14.0544 20.3064 13.9732C20.3877 13.8919 20.4333 13.7817 20.4333 13.6667V10.3334C20.4333 10.2185 20.3877 10.1083 20.3064 10.027C20.2252 9.94574 20.1149 9.90008 20 9.90008ZM19.5667 13.2666C18.9903 13.3578 18.4566 13.6292 18.0429 14.0429C17.6291 14.4567 17.3578 14.9903 17.2665 15.5667H6.73347C6.64224 14.9903 6.37087 14.4567 5.95715 14.0429C5.54342 13.6292 5.00976 13.3578 4.43334 13.2666V10.7335C5.00976 10.6423 5.54342 10.371 5.95715 9.95722C6.37087 9.5435 6.64224 9.00983 6.73347 8.43341H17.2665C17.3578 9.00983 17.6291 9.5435 18.0429 9.95722C18.4566 10.371 18.9903 10.6423 19.5667 10.7335V13.2666Z" fill="currentColor" stroke="currentColor" stroke-width="0.2"/>
<path d="M12 8.9C11.3869 8.9 10.7875 9.08181 10.2777 9.42244C9.76794 9.76308 9.37061 10.2472 9.13597 10.8137C8.90134 11.3801 8.83995 12.0034 8.95957 12.6048C9.07918 13.2061 9.37443 13.7585 9.80797 14.192C10.2415 14.6256 10.7939 14.9208 11.3952 15.0404C11.9966 15.16 12.6199 15.0987 13.1863 14.864C13.7528 14.6294 14.2369 14.2321 14.5776 13.7223C14.9182 13.2125 15.1 12.6131 15.1 12C15.1 11.1778 14.7734 10.3893 14.192 9.80797C13.6107 9.22661 12.8222 8.9 12 8.9ZM12 14.2333C11.5583 14.2333 11.1265 14.1024 10.7592 13.8569C10.392 13.6115 10.1057 13.2627 9.93667 12.8547C9.76763 12.4466 9.72341 11.9975 9.80958 11.5643C9.89575 11.1311 10.1085 10.7331 10.4208 10.4208C10.7331 10.1085 11.1311 9.89575 11.5643 9.80958C11.9975 9.72341 12.4466 9.76763 12.8547 9.93667C13.2627 10.1057 13.6115 10.392 13.8569 10.7592C14.1024 11.1265 14.2333 11.5583 14.2333 12C14.2333 12.5923 13.998 13.1604 13.5792 13.5792C13.1604 13.998 12.5923 14.2333 12 14.2333Z" fill="currentColor" stroke="currentColor" stroke-width="0.2"/>
</svg>
