<svg width="24" height="24" viewBox="0 0 24 24" fill="none" xmlns="http://www.w3.org/2000/svg">
<path fill-rule="evenodd" clip-rule="evenodd" d="M13.4011 20.7607C12.9698 21.2244 12.5815 21.6418 12.2609 22C12.2609 22 4 13.6374 4 9.7608C4 5.48134 7.70566 2 12.2609 2C16.8161 2 20.5217 5.48134 20.5217 9.7608C20.5217 13.1053 16.1116 17.8466 13.4011 20.7607ZM12.2609 2.70551C8.12011 2.70551 4.75099 5.87068 4.75099 9.76079C4.75099 13.2439 10.8913 19.5332 12.2609 20.8922C13.6305 19.5332 19.7708 13.2439 19.7708 9.76079C19.7708 5.87068 16.4016 2.70551 12.2609 2.70551Z" fill="currentColor"/>
<path d="M12.2609 22L12.1542 22.1054L12.2662 22.2189L12.3726 22.1L12.2609 22ZM13.4011 20.7607L13.5109 20.8629V20.8629L13.4011 20.7607ZM12.2609 20.8922L12.1552 20.9987L12.2609 21.1036L12.3665 20.9987L12.2609 20.8922ZM12.3726 22.1C12.6921 21.7432 13.0793 21.3269 13.5109 20.8629L13.2912 20.6586C12.8602 21.1219 12.4709 21.5405 12.1491 21.9L12.3726 22.1ZM3.85 9.7608C3.85 10.7729 4.38518 12.0524 5.16116 13.3841C5.9409 14.7224 6.9786 16.1376 8.01342 17.428C9.04872 18.7189 10.0836 19.888 10.8596 20.7342C11.2476 21.1573 11.571 21.4999 11.7975 21.7368C11.9108 21.8552 11.9998 21.9472 12.0606 22.0097C12.091 22.041 12.1143 22.0648 12.1301 22.0809C12.1379 22.0889 12.1439 22.095 12.148 22.0991C12.15 22.1012 12.1515 22.1027 12.1526 22.1038C12.1531 22.1043 12.1535 22.1047 12.1537 22.105C12.1539 22.1051 12.154 22.1052 12.154 22.1053C12.1541 22.1054 12.1542 22.1054 12.2609 22C12.3676 21.8946 12.3676 21.8946 12.3675 21.8945C12.3675 21.8945 12.3674 21.8944 12.3673 21.8943C12.367 21.894 12.3667 21.8936 12.3662 21.8932C12.3652 21.8922 12.3637 21.8907 12.3618 21.8887C12.3579 21.8847 12.352 21.8788 12.3443 21.8709C12.3288 21.8551 12.3057 21.8315 12.2756 21.8005C12.2154 21.7386 12.127 21.6472 12.0143 21.5294C11.7891 21.2939 11.4671 20.9528 11.0807 20.5314C10.3077 19.6884 9.27737 18.5245 8.24745 17.2403C7.21706 15.9554 6.18954 14.5532 5.42036 13.2331C4.64743 11.9066 4.15 10.687 4.15 9.7608H3.85ZM12.2609 1.85C7.63178 1.85 3.85 5.38981 3.85 9.7608H4.15C4.15 5.57287 7.77954 2.15 12.2609 2.15V1.85ZM20.6717 9.7608C20.6717 5.38981 16.89 1.85 12.2609 1.85V2.15C16.7422 2.15 20.3717 5.57287 20.3717 9.7608H20.6717ZM13.5109 20.8629C14.8652 19.4068 16.6515 17.4867 18.0989 15.5108C18.8227 14.5226 19.4645 13.5169 19.9258 12.545C20.3865 11.5744 20.6717 10.628 20.6717 9.7608H20.3717C20.3717 10.5659 20.1057 11.4663 19.6548 12.4164C19.2045 13.3651 18.5743 14.354 17.8568 15.3335C16.4215 17.2929 14.6474 19.2005 13.2912 20.6586L13.5109 20.8629ZM4.90099 9.76079C4.90099 5.96221 8.19399 2.85551 12.2609 2.85551V2.55551C8.04623 2.55551 4.60099 5.77916 4.60099 9.76079H4.90099ZM12.3665 20.7858C11.6834 20.108 9.81103 18.2009 8.11039 16.0305C7.25996 14.9452 6.45517 13.7973 5.86366 12.7069C5.27 11.6125 4.90099 10.5933 4.90099 9.76079H4.60099C4.60099 10.6698 4.99951 11.743 5.59995 12.8499C6.20254 13.9608 7.01841 15.1233 7.87425 16.2156C9.58616 18.4004 11.4687 20.3175 12.1552 20.9987L12.3665 20.7858ZM19.6208 9.76079C19.6208 10.5933 19.2517 11.6125 18.6581 12.7069C18.0666 13.7973 17.2618 14.9452 16.4113 16.0305C14.7107 18.2009 12.8383 20.108 12.1552 20.7858L12.3665 20.9987C13.0531 20.3175 14.9356 18.4004 16.6475 16.2156C17.5033 15.1233 18.3192 13.9608 18.9218 12.8499C19.5222 11.743 19.9208 10.6698 19.9208 9.76079H19.6208ZM12.2609 2.85551C16.3277 2.85551 19.6208 5.96221 19.6208 9.76079H19.9208C19.9208 5.77916 16.4755 2.55551 12.2609 2.55551V2.85551Z" fill="currentColor"/>
<path fill-rule="evenodd" clip-rule="evenodd" d="M14.3879 15.4987C14.3863 15.4995 14.3846 15.5002 14.3829 15.5008L14.3804 15.502C13.0205 16.05 11.5012 16.05 10.1413 15.502L10.1388 15.5008C10.1371 15.5002 10.1354 15.4995 10.1339 15.4987C9.62776 15.2931 9.15428 15.0149 8.72831 14.6729C8.72754 14.6724 8.72693 14.6719 8.72608 14.6711C8.72556 14.6707 8.72495 14.6702 8.72415 14.6696C7.384 13.5992 6.60518 11.976 6.60877 10.2609C6.60877 7.14427 9.14432 4.60869 12.2609 4.60869C15.3774 4.60869 17.913 7.14427 17.913 10.2609C17.9166 11.976 17.1378 13.5992 15.7964 14.6704C15.7955 14.6713 15.7945 14.6722 15.7935 14.6729C15.3675 15.0149 14.894 15.2931 14.3879 15.4987ZM8.75334 6.67946C6.80204 8.60313 6.72358 11.7489 8.57651 13.7695C10.4294 15.7902 14.0923 15.7902 15.9452 13.7695C17.7982 11.7489 17.7197 8.60313 15.7684 6.67946C13.8171 4.75579 10.7046 4.75579 8.75334 6.67946Z" fill="currentColor"/>
<path d="M14.3829 15.5008L14.3402 15.357L14.3276 15.3607L14.3158 15.3666L14.3829 15.5008ZM14.3879 15.4987L14.3314 15.3597L14.3234 15.363L14.3158 15.3671L14.3879 15.4987ZM14.3804 15.502L14.4367 15.6416L14.4475 15.6362L14.3804 15.502ZM10.1413 15.502L10.0741 15.6366L10.0853 15.6411L10.1413 15.502ZM10.1388 15.5008L10.2059 15.3666L10.1941 15.3607L10.1815 15.357L10.1388 15.5008ZM10.1339 15.4987L10.2059 15.3671L10.1983 15.363L10.1903 15.3597L10.1339 15.4987ZM8.72831 14.6729L8.82259 14.5555L8.81153 14.5481L8.72831 14.6729ZM8.72608 14.6711L8.82255 14.5563L8.82252 14.5563L8.72608 14.6711ZM8.72415 14.6696L8.81781 14.5524L8.81776 14.5524L8.72415 14.6696ZM6.60877 10.2609L6.75877 10.2612V10.2609H6.60877ZM17.913 10.2609H17.763L17.763 10.2612L17.913 10.2609ZM15.7964 14.6704L15.7028 14.5532L15.6945 14.5598L15.6873 14.5674L15.7964 14.6704ZM15.7935 14.6729L15.7082 14.5489L15.6995 14.5559L15.7935 14.6729ZM8.57651 13.7695L8.68707 13.6681L8.57651 13.7695ZM8.75334 6.67946L8.85864 6.78628L8.75334 6.67946ZM15.9452 13.7695L15.8347 13.6681L15.9452 13.7695ZM15.7684 6.67946L15.6631 6.78628L15.7684 6.67946ZM14.4256 15.6446C14.4375 15.641 14.449 15.6362 14.46 15.6302L14.3158 15.3671C14.3236 15.3629 14.3318 15.3595 14.3402 15.357L14.4256 15.6446ZM14.4475 15.6362L14.45 15.6349L14.3158 15.3666L14.3134 15.3678L14.4475 15.6362ZM10.0853 15.6411C11.4811 16.2037 13.0406 16.2037 14.4365 15.6411L14.3244 15.3629C13.0004 15.8964 11.5213 15.8964 10.1974 15.3629L10.0853 15.6411ZM10.0718 15.6349L10.0743 15.6362L10.2084 15.3678L10.2059 15.3666L10.0718 15.6349ZM10.0618 15.6302C10.0727 15.6362 10.0842 15.641 10.0962 15.6446L10.1815 15.357C10.19 15.3595 10.1982 15.3629 10.2059 15.3671L10.0618 15.6302ZM8.6344 14.7898C9.07172 15.141 9.55781 15.4266 10.0774 15.6377L10.1903 15.3597C9.6977 15.1596 9.23684 14.8888 8.82222 14.5559L8.6344 14.7898ZM8.62961 14.786C8.62961 14.786 8.63635 14.7919 8.64509 14.7977L8.81153 14.5481C8.81873 14.5529 8.82424 14.5577 8.82255 14.5563L8.62961 14.786ZM8.6305 14.7867C8.62974 14.7861 8.62913 14.7856 8.62964 14.786L8.82252 14.5563C8.82199 14.5558 8.82015 14.5543 8.81781 14.5524L8.6305 14.7867ZM6.45877 10.2605C6.45508 12.0214 7.25467 13.6878 8.63054 14.7868L8.81776 14.5524C7.51334 13.5105 6.75527 11.9306 6.75877 10.2612L6.45877 10.2605ZM12.2609 4.45869C9.06148 4.45869 6.45877 7.06143 6.45877 10.2609H6.75877C6.75877 7.22711 9.22717 4.75869 12.2609 4.75869V4.45869ZM18.063 10.2609C18.063 7.06143 15.4603 4.45869 12.2609 4.45869V4.75869C15.2946 4.75869 17.763 7.22711 17.763 10.2609H18.063ZM15.89 14.7876C17.2671 13.6879 18.0667 12.0214 18.063 10.2605L17.763 10.2612C17.7665 11.9306 17.0084 13.5105 15.7028 14.5532L15.89 14.7876ZM15.8784 14.7965C15.8883 14.7897 15.8973 14.7819 15.9055 14.7733L15.6873 14.5674C15.6936 14.5607 15.7007 14.5546 15.7085 14.5493L15.8784 14.7965ZM14.4444 15.6377C14.9639 15.4266 15.45 15.141 15.8874 14.7898L15.6995 14.5559C15.2849 14.8888 14.8241 15.1596 14.3314 15.3597L14.4444 15.6377ZM8.68707 13.6681C6.88865 11.707 6.96489 8.65322 8.85864 6.78628L8.64803 6.57264C6.63918 8.55304 6.55851 11.7908 8.46596 13.8709L8.68707 13.6681ZM15.8347 13.6681C14.9415 14.6421 13.6057 15.135 12.2609 15.135C10.9161 15.135 9.58021 14.6421 8.68707 13.6681L8.46596 13.8709C9.42574 14.9176 10.8478 15.435 12.2609 15.435C13.674 15.435 15.096 14.9176 16.0558 13.8709L15.8347 13.6681ZM15.6631 6.78628C17.5569 8.65322 17.6331 11.707 15.8347 13.6681L16.0558 13.8709C17.9632 11.7908 17.8826 8.55304 15.8737 6.57264L15.6631 6.78628ZM8.85864 6.78628C10.7515 4.92018 13.7702 4.92018 15.6631 6.78628L15.8737 6.57264C13.864 4.59139 10.6577 4.59139 8.64803 6.57264L8.85864 6.78628Z" fill="currentColor"/>
</svg>
