<svg width="24" height="24" viewBox="0 0 24 24" fill="none" xmlns="http://www.w3.org/2000/svg">
<path fill-rule="evenodd" clip-rule="evenodd" d="M12.3512 4.0001C16.8547 4.06501 20.5494 8.17898 22.4 11.7187C22.4 11.7187 21.7488 13.0727 21.138 13.9395C20.8425 14.3588 20.5316 14.7673 20.2049 15.1624C19.9719 15.4437 19.7313 15.7176 19.4817 15.9837C17.2512 18.3637 14.048 20.1392 10.6655 19.4499C6.9077 18.6839 3.84247 15.4125 2 11.894C2 11.894 2.65419 10.5387 3.26835 9.67319C3.54348 9.28503 3.83224 8.90726 4.13464 8.54074C4.36633 8.2599 4.60654 7.98598 4.85484 7.71985C6.8255 5.60986 9.3541 3.98539 12.3512 4.0001ZM12.3354 5.73102C9.82686 5.7215 7.74077 7.14475 6.09039 8.91159C5.86594 9.15175 5.64958 9.39928 5.44003 9.65285C5.16447 9.98692 4.90127 10.3318 4.65041 10.6853C4.39955 11.0385 4.1423 11.4842 3.93829 11.8628C5.5627 14.6362 8.001 17.1413 11.0007 17.7527C13.7959 18.3226 16.4045 16.757 18.2479 14.7902C18.4732 14.5501 18.6908 14.3021 18.9012 14.0481C19.1993 13.6876 19.483 13.3151 19.7526 12.9321C20.0022 12.5777 20.259 12.1311 20.4626 11.752C18.7768 8.88519 15.8926 5.78728 12.3354 5.73102Z" fill="currentColor"/>
<path fill-rule="evenodd" clip-rule="evenodd" d="M12.4606 9C13.8187 9 14.9214 10.1204 14.9214 11.5C14.9214 12.8799 13.8187 14 12.4606 14C11.1028 14 10 12.8799 10 11.5C10 10.1204 11.1028 9 12.4606 9Z" fill="currentColor"/>
</svg>
