<svg width="24" height="24" viewBox="0 0 24 24" fill="none" xmlns="http://www.w3.org/2000/svg">
<path d="M11.3032 14.826L11.3032 21.2065C11.3032 21.4939 11.4174 21.7696 11.6207 21.9729C11.824 22.1761 12.0996 22.2903 12.3871 22.2903C12.6746 22.2903 12.9502 22.1761 13.1535 21.9729C13.3568 21.7696 13.471 21.4939 13.471 21.2065L13.471 14.826C14.7868 14.5574 15.9561 13.8097 16.7521 12.728C17.548 11.6463 17.914 10.3076 17.779 8.97143C17.644 7.63523 17.0177 6.39675 16.0215 5.4961C15.0253 4.59544 13.7301 4.09678 12.3871 4.09678C11.0441 4.09678 9.74894 4.59544 8.75272 5.4961C7.7565 6.39675 7.13018 7.63523 6.9952 8.97143C6.86021 10.3076 7.22618 11.6463 8.02215 12.728C8.81811 13.8097 9.98737 14.5574 11.3032 14.826Z" fill="#3B3B3B"/>
</svg>
