<svg width="24" height="24" viewBox="0 0 24 24" fill="none" xmlns="http://www.w3.org/2000/svg">
<g clip-path="url(#clip0_171_7923)">
<path d="M12.0001 21C16.9707 21 21.0001 16.9706 21.0001 12C21.0001 7.02944 16.9707 3 12.0001 3C7.02953 3 3.00009 7.02944 3.00009 12C3.00009 16.9706 7.02953 21 12.0001 21Z" stroke="currentColor" stroke-width="1.125" stroke-linecap="round" stroke-linejoin="round"/>
<path d="M12 17.8125C12.5178 17.8125 12.9375 17.3928 12.9375 16.875C12.9375 16.3572 12.5178 15.9375 12 15.9375C11.4822 15.9375 11.0625 16.3572 11.0625 16.875C11.0625 17.3928 11.4822 17.8125 12 17.8125Z" fill="currentColor"/>
<path d="M12 13.5004V12.7504C12.5192 12.7504 13.0267 12.5964 13.4584 12.308C13.8901 12.0196 14.2265 11.6096 14.4252 11.1299C14.6239 10.6503 14.6759 10.1225 14.5746 9.61329C14.4733 9.10409 14.2233 8.63636 13.8562 8.26924C13.4891 7.90213 13.0213 7.65212 12.5121 7.55084C12.0029 7.44955 11.4751 7.50153 10.9955 7.70021C10.5158 7.89889 10.1059 8.23535 9.81742 8.66703C9.52898 9.09871 9.37503 9.60622 9.37503 10.1254" stroke="currentColor" stroke-width="1.125" stroke-linecap="round" stroke-linejoin="round"/>
</g>
<defs>
<clipPath id="clip0_171_7923">
<rect width="24" height="24" fill="white"/>
</clipPath>
</defs>
</svg>
