<svg width="24" height="24" viewBox="0 0 24 24" fill="none" xmlns="http://www.w3.org/2000/svg">
<path d="M20.0075 12.803C19.8864 12.803 19.7702 12.8511 19.6846 12.9367C19.5989 13.0224 19.5508 13.1385 19.5508 13.2596C19.5508 15.0763 18.8291 16.8186 17.5445 18.1032C16.2599 19.3878 14.5177 20.1095 12.701 20.1095C4.28477 19.8309 3.41712 8.04919 11.6415 6.52395L10.0204 7.65646C9.97121 7.69095 9.92931 7.73478 9.89707 7.78545C9.86484 7.83613 9.8429 7.89266 9.83251 7.95181C9.82212 8.01097 9.82349 8.07159 9.83652 8.13021C9.84956 8.18884 9.87402 8.24433 9.90851 8.2935C9.97815 8.39281 10.0844 8.46039 10.2039 8.48138C10.263 8.49177 10.3236 8.4904 10.3823 8.47736C10.4409 8.46432 10.4964 8.43986 10.5455 8.40538L13.4864 6.34586C13.5515 6.29978 13.6034 6.23747 13.6369 6.16513C13.6704 6.09278 13.6844 6.01292 13.6775 5.93348C13.6705 5.85405 13.6429 5.77782 13.5974 5.71236C13.5519 5.64691 13.49 5.59452 13.4179 5.56041L10.1665 4.03974C10.0573 3.99092 9.93328 3.98691 9.82114 4.02857C9.70899 4.07024 9.61768 4.15424 9.56682 4.26253C9.51597 4.37082 9.50964 4.49474 9.5492 4.60764C9.58876 4.72055 9.67104 4.81342 9.77836 4.86629L11.4223 5.63347C2.16132 7.4601 3.20249 20.7032 12.701 21C14.7559 21 16.7271 20.1852 18.1823 18.7343C19.6375 17.2833 20.4581 15.3146 20.4641 13.2596C20.4641 13.1385 20.416 13.0224 20.3304 12.9367C20.2447 12.8511 20.1286 12.803 20.0075 12.803Z" fill="currentColor"/>
<path d="M12.337 17.9147V16.6957L12.5459 16.896C12.128 16.8844 11.7304 16.8234 11.3531 16.7131C10.9758 16.597 10.6507 16.4316 10.3779 16.2168L10.7262 15.3287C10.9061 15.4622 11.0977 15.5754 11.3008 15.6683C11.5098 15.7612 11.7275 15.8308 11.9538 15.8773C12.186 15.9237 12.4327 15.9469 12.6939 15.9469C13.1177 15.9469 13.4282 15.8744 13.6256 15.7293C13.8229 15.5783 13.9216 15.3926 13.9216 15.172C13.9216 14.9572 13.8491 14.7918 13.7039 14.6757C13.5646 14.5596 13.3324 14.4726 13.0074 14.4145L12.0757 14.2317C11.5591 14.133 11.1673 13.953 10.9003 13.6918C10.6333 13.4248 10.4998 13.0649 10.4998 12.6122C10.4998 12.2755 10.584 11.9795 10.7523 11.7241C10.9206 11.4629 11.1557 11.2539 11.4576 11.0972C11.7594 10.9346 12.1135 10.8389 12.5198 10.8098L12.337 10.9491V9.77371H13.2338V10.9491L13.0422 10.8011C13.3789 10.8185 13.7068 10.8853 14.0261 11.0014C14.3512 11.1175 14.6211 11.28 14.8358 11.489L14.4963 12.3336C14.2757 12.142 14.0232 11.9969 13.7388 11.8982C13.4543 11.7937 13.1438 11.7415 12.8071 11.7415C12.4414 11.7415 12.1483 11.8227 11.9277 11.9853C11.713 12.142 11.6056 12.3481 11.6056 12.6035C11.6056 12.8066 11.6723 12.9663 11.8058 13.0823C11.9393 13.1984 12.157 13.2826 12.4589 13.3348L13.3818 13.5177C13.9448 13.628 14.3599 13.8166 14.6269 14.0836C14.8939 14.3449 15.0274 14.6931 15.0274 15.1285C15.0274 15.4593 14.9432 15.7496 14.7749 15.9992C14.6066 16.2488 14.3744 16.449 14.0783 16.5999C13.7881 16.7451 13.4485 16.835 13.0596 16.8699L13.2338 16.6957V17.9147H12.337Z" fill="currentColor"/>
<path fill-rule="evenodd" clip-rule="evenodd" d="M10.0204 7.65646L11.6415 6.52395C11.4689 6.55596 11.3003 6.59249 11.1357 6.63333C3.45687 8.53863 4.4614 19.8368 12.701 20.1095C14.5177 20.1095 16.2599 19.3878 17.5445 18.1032C18.8291 16.8186 19.5508 15.0763 19.5508 13.2596C19.5508 13.1385 19.5989 13.0224 19.6846 12.9367C19.7702 12.8511 19.8864 12.803 20.0075 12.803C20.1286 12.803 20.2447 12.8511 20.3304 12.9367C20.416 13.0224 20.4641 13.1385 20.4641 13.2596C20.4581 15.3146 19.6375 17.2833 18.1823 18.7343C16.7271 20.1852 14.7559 21 12.701 21C3.31474 20.7067 2.1871 7.77129 11.0983 5.70297C11.2049 5.67824 11.3129 5.65506 11.4223 5.63347L9.77836 4.86629C9.67104 4.81342 9.58876 4.72055 9.5492 4.60764C9.50964 4.49474 9.51597 4.37082 9.56682 4.26253C9.61768 4.15424 9.70899 4.07024 9.82114 4.02857C9.93328 3.98691 10.0573 3.99092 10.1665 4.03974L13.4179 5.56041C13.49 5.59452 13.5519 5.64691 13.5974 5.71236C13.6429 5.77782 13.6705 5.85405 13.6775 5.93348C13.6844 6.01292 13.6704 6.09278 13.6369 6.16513C13.6034 6.23747 13.5515 6.29978 13.4864 6.34586L10.5455 8.40538C10.4964 8.43986 10.4409 8.46432 10.3823 8.47736C10.3236 8.4904 10.263 8.49177 10.2039 8.48138C10.0844 8.46039 9.97815 8.39281 9.90851 8.2935C9.87402 8.24433 9.84956 8.18884 9.83652 8.13021C9.82349 8.07159 9.82212 8.01097 9.83251 7.95181C9.8429 7.89266 9.86484 7.83613 9.89707 7.78545C9.92931 7.73478 9.97121 7.69095 10.0204 7.65646ZM10.6604 8.56913C10.5897 8.6187 10.5099 8.65385 10.4257 8.67259C10.3414 8.69133 10.2543 8.69329 10.1693 8.67836C9.99755 8.6482 9.84485 8.55107 9.74475 8.40833C9.69519 8.33765 9.66004 8.2579 9.64129 8.17363C9.62255 8.08937 9.62059 8.00224 9.63553 7.91722C9.65046 7.83219 9.68199 7.75094 9.72832 7.67811C9.77466 7.60527 9.83488 7.54227 9.90556 7.49271L10.6298 6.98674C3.78432 9.23195 4.90542 19.6484 12.7043 19.9095C14.4667 19.9086 16.1568 19.2081 17.4031 17.9618C18.6502 16.7147 19.3508 15.0233 19.3508 13.2596C19.3508 13.0855 19.42 12.9185 19.5432 12.7953C19.6663 12.6722 19.8333 12.603 20.0075 12.603C20.1816 12.603 20.3487 12.6722 20.4718 12.7953C20.595 12.9185 20.6641 13.0855 20.6641 13.2596C20.6579 15.3676 19.8162 17.3876 18.3235 18.8759C16.8308 20.3642 14.8089 21.2 12.701 21.2H12.6947C3.15734 20.9019 1.93864 7.86497 10.8091 5.568L9.68995 5.04574C9.53563 4.96971 9.41733 4.83613 9.36045 4.67377C9.30357 4.51142 9.31267 4.33323 9.38579 4.17752C9.45892 4.0218 9.59023 3.901 9.75149 3.84109C9.91275 3.78118 10.0911 3.78695 10.2481 3.85715L10.2513 3.85855L13.5026 5.37924C13.6063 5.4283 13.6961 5.50403 13.7616 5.59814C13.8271 5.69226 13.8668 5.80189 13.8767 5.91611C13.8867 6.03033 13.8666 6.14517 13.8184 6.2492C13.7702 6.35324 13.6956 6.44283 13.602 6.50909L13.6011 6.50968L10.6604 8.56913ZM12.137 18.1147V17.0693C11.8477 17.0389 11.5677 16.9842 11.297 16.9051L11.2942 16.9043C10.8966 16.782 10.5488 16.6059 10.2542 16.374L10.1375 16.2821L10.6354 15.0124L10.8453 15.1681C11.0138 15.2931 11.1929 15.399 11.383 15.486C11.5782 15.5726 11.7817 15.6378 11.9936 15.6813C12.2115 15.7248 12.4448 15.7469 12.6939 15.7469C13.1015 15.7469 13.3595 15.6759 13.5056 15.5692C13.6595 15.451 13.7216 15.3213 13.7216 15.172C13.7216 15.0074 13.669 14.9038 13.579 14.8319L13.5759 14.8294C13.4772 14.7471 13.287 14.6676 12.9722 14.6114L12.9689 14.6108L12.0382 14.4281C12.0381 14.4281 12.0384 14.4281 12.0382 14.4281C11.4983 14.3249 11.0648 14.1325 10.7605 13.8348L10.7589 13.8333C10.4471 13.5214 10.2998 13.1067 10.2998 12.6122C10.2998 12.2408 10.3931 11.906 10.5847 11.6149C10.7734 11.3225 11.0353 11.0913 11.364 10.9204C11.5968 10.7952 11.855 10.7079 12.137 10.6564V9.57371H13.4338V10.6416C13.6577 10.6774 13.8778 10.7347 14.0939 10.8132C14.4416 10.9375 14.7372 11.114 14.9753 11.3456L15.0714 11.4392L14.5771 12.6686L14.3651 12.4846C14.1644 12.3102 13.9343 12.1777 13.6732 12.0872L13.6698 12.086C13.4098 11.9904 13.1229 11.9415 12.8071 11.9415C12.47 11.9415 12.2227 12.0164 12.0464 12.1463C11.8807 12.2672 11.8056 12.415 11.8056 12.6035C11.8056 12.7583 11.854 12.8592 11.9371 12.9314C12.0295 13.0118 12.2041 13.0878 12.493 13.1378L12.4977 13.1386L13.4202 13.3214C14.0027 13.4356 14.4614 13.6357 14.7675 13.9414C14.7673 13.9412 14.767 13.9409 14.7667 13.9407L14.6269 14.0836L14.7683 13.9422C14.768 13.942 14.7678 13.9417 14.7675 13.9414C15.0789 14.2464 15.2274 14.6494 15.2274 15.1285C15.2274 15.4951 15.1335 15.8251 14.9407 16.111C14.7515 16.3916 14.4922 16.6134 14.1692 16.7781L14.1678 16.7788C13.9462 16.8896 13.7011 16.9695 13.4338 17.0201V16.8163C13.4117 16.8208 13.3895 16.825 13.3671 16.829C13.3234 16.8369 13.2789 16.8439 13.2338 16.8501V17.0519C13.3017 17.0431 13.3684 17.0324 13.4338 17.0201V18.1147H12.137ZM14.3327 12.2042L14.3107 12.2589L14.4963 12.3336L14.6274 12.1825C14.6101 12.1675 14.5925 12.1527 14.5748 12.1382L14.4963 12.3336C14.4436 12.2878 14.3891 12.2447 14.3327 12.2042ZM13.3274 10.828C13.363 10.8328 13.3984 10.8383 13.4338 10.8443L13.3274 10.828Z" fill="currentColor"/>
</svg>
