<svg width="24" height="24" viewBox="0 0 24 24" fill="none" xmlns="http://www.w3.org/2000/svg">
<path d="M13.3066 4.47285C12.9592 3.84238 12.0408 3.84238 11.6934 4.47285C11.5042 4.8163 11.3226 5.16436 11.149 5.5168C10.6021 6.62664 10.1337 7.77998 9.75052 8.97002C9.61946 9.37709 9.23004 9.65982 8.78434 9.67165C7.73254 9.69957 6.68266 9.78612 5.64157 9.93305C5.34424 9.97502 5.04849 10.0217 4.7544 10.0731C4.02315 10.2009 3.74876 11.0346 4.26803 11.5427C4.38648 11.6586 4.50594 11.7736 4.62638 11.8875C5.52706 12.7396 6.48312 13.5368 7.48881 14.2735C7.83568 14.5276 7.97827 14.9635 7.8457 15.3614C7.43035 16.6079 7.1089 17.8956 6.88947 19.2165C6.84546 19.4814 6.80555 19.7477 6.76981 20.0152C6.6746 20.7279 7.43823 21.2312 8.10106 20.8914C8.33765 20.7701 8.57216 20.6455 8.80451 20.5176C9.87053 19.9308 10.8911 19.275 11.8599 18.5565C12.2359 18.2776 12.7641 18.2776 13.1401 18.5565C14.1089 19.275 15.1295 19.9308 16.1955 20.5176C16.4278 20.6455 16.6623 20.7701 16.8989 20.8914C17.5618 21.2312 18.3254 20.7279 18.2302 20.0152C18.1944 19.7477 18.1545 19.4814 18.1105 19.2165C17.8911 17.8956 17.5696 16.6079 17.1543 15.3614C17.0217 14.9635 17.1643 14.5276 17.5112 14.2735C18.5169 13.5368 19.4729 12.7396 20.3736 11.8875C20.4941 11.7736 20.6135 11.6586 20.732 11.5427C21.2512 11.0346 20.9769 10.2009 20.2456 10.0731C19.9515 10.0217 19.6558 9.97502 19.3584 9.93305C18.3173 9.78612 17.2675 9.69957 16.2157 9.67165C15.77 9.65982 15.3805 9.37709 15.2495 8.97002C14.8663 7.77998 14.3979 6.62664 13.851 5.5168C13.6774 5.16436 13.4958 4.8163 13.3066 4.47285Z" stroke="currentColor" stroke-width="1.4" stroke-linecap="round" stroke-linejoin="round"/>
</svg>
