<svg width="24" height="24" viewBox="0 0 24 24" fill="none" xmlns="http://www.w3.org/2000/svg">
<path d="M4 9.33333V8.6224C4 7.62675 4 7.12855 4.19377 6.74826C4.36421 6.41375 4.63598 6.14199 4.97049 5.97154C5.35077 5.77778 5.84897 5.77778 6.84462 5.77778H17.1557C18.1514 5.77778 18.6485 5.77778 19.0288 5.97154C19.3633 6.14199 19.636 6.41375 19.8064 6.74826C20 7.12818 20 7.62577 20 8.61948V9.33333M4 9.33333H20M4 9.33333V15.378C4 16.3736 4 16.8712 4.19377 17.2515C4.36421 17.586 4.63598 17.8582 4.97049 18.0286C5.3504 18.2222 5.84799 18.2222 6.8417 18.2222H17.1583C18.152 18.2222 18.6489 18.2222 19.0288 18.0286C19.3633 17.8582 19.636 17.586 19.8064 17.2515C20 16.8715 20 16.3747 20 15.381V9.33333" stroke="currentColor" stroke-width="1.4" stroke-linecap="round" stroke-linejoin="round"/>
<path d="M6 15H10" stroke="currentColor" stroke-width="1.4" stroke-linecap="round" stroke-linejoin="round"/>
<path d="M19 3H22C22.5523 3 23 3.44772 23 4V7" stroke="currentColor" stroke-width="1.4" stroke-linecap="round"/>
<path d="M5 3H2C1.44772 3 1 3.44772 1 4V7" stroke="currentColor" stroke-width="1.4" stroke-linecap="round"/>
<path d="M19 21H22C22.5523 21 23 20.5523 23 20V17" stroke="currentColor" stroke-width="1.4" stroke-linecap="round"/>
<path d="M5 21H2C1.44772 21 1 20.5523 1 20V17" stroke="currentColor" stroke-width="1.4" stroke-linecap="round"/>
</svg>
