<svg width="24" height="24" viewBox="0 0 24 24" fill="none" xmlns="http://www.w3.org/2000/svg">
<path d="M10.715 4.85047C10.7632 4.36767 11.1695 4 11.6547 4H13.3453C13.8305 4 14.2368 4.36767 14.285 4.85047L14.3164 5.16421C15.0614 5.34805 15.7628 5.64239 16.4023 6.02886L16.6468 5.82874C17.0224 5.52149 17.5696 5.54878 17.9127 5.89188L19.1082 7.0873C19.4512 7.43039 19.4785 7.97765 19.1713 8.35318L18.9712 8.59777C19.3576 9.23726 19.652 9.93866 19.8358 10.6836L20.1495 10.715C20.6323 10.7632 21 11.1695 21 11.6547V13.3453C21 13.8305 20.6323 14.2368 20.1495 14.285L19.8358 14.3164C19.652 15.0614 19.3576 15.7628 18.9711 16.4023L19.1713 16.6469C19.4785 17.0224 19.4512 17.5696 19.1081 17.9127L17.9127 19.1082C17.5696 19.4512 17.0224 19.4785 16.6468 19.1713L16.4022 18.9712C15.7627 19.3576 15.0613 19.652 14.3164 19.8358L14.285 20.1495C14.2368 20.6323 13.8305 21 13.3453 21H11.6547C11.1695 21 10.7632 20.6323 10.715 20.1495L10.6836 19.8358C9.93866 19.652 9.23726 19.3576 8.59777 18.9712L8.35322 19.1712C7.97769 19.4785 7.43043 19.4512 7.08734 19.1081L5.89192 17.9127C5.54882 17.5696 5.52153 17.0223 5.82878 16.6468L6.02886 16.4023C5.64239 15.7628 5.34805 15.0614 5.16421 14.3164L4.85047 14.285C4.36767 14.2368 4 13.8305 4 13.3453V11.6547C4 11.1695 4.36767 10.7632 4.85047 10.715L5.16421 10.6836C5.34805 9.93866 5.64238 9.23726 6.02884 8.59777L5.82875 8.35322C5.5215 7.97769 5.54879 7.43043 5.89189 7.08734L7.08731 5.89192C7.4304 5.54882 7.97766 5.52153 8.35319 5.82878L8.59773 6.02886C9.23723 5.6424 9.93864 5.34805 10.6836 5.16421L10.715 4.85047Z" stroke="currentColor" stroke-width="1.4" stroke-miterlimit="1" stroke-linecap="round" stroke-linejoin="round"/>
<path d="M14.8611 12.5C14.8611 11.196 13.804 10.1389 12.5 10.1389C11.196 10.1389 10.1389 11.196 10.1389 12.5C10.1389 13.804 11.196 14.8611 12.5 14.8611C13.804 14.8611 14.8611 13.804 14.8611 12.5Z" stroke="currentColor" stroke-width="1.4" stroke-miterlimit="1" stroke-linecap="round" stroke-linejoin="round"/>
</svg>
