<svg width="24" height="24" viewBox="0 0 24 24" fill="none" xmlns="http://www.w3.org/2000/svg">
<path d="M3.56666 18.1667C3.56666 19.6386 4.69477 20.7667 6.16666 20.7667C7.63856 20.7667 8.76666 19.6386 8.76666 18.1667C8.76666 16.6948 7.63856 15.5667 6.16666 15.5667C4.69477 15.5667 3.56666 16.6948 3.56666 18.1667ZM4.6 18.1667C4.6 17.5128 4.80058 17.129 5.08296 16.905C5.36986 16.6776 5.75976 16.6 6.16666 16.6C6.56847 16.6 6.95957 16.7006 7.24848 16.9414C7.53418 17.1795 7.73333 17.5657 7.73333 18.1667C7.73333 18.7676 7.53418 19.1538 7.24848 19.3919C6.95957 19.6327 6.56847 19.7333 6.16666 19.7333C5.76485 19.7333 5.37376 19.6327 5.08485 19.3919C4.79915 19.1538 4.6 18.7676 4.6 18.1667ZM15.2333 18.1667C15.2333 19.6386 16.3614 20.7667 17.8333 20.7667C19.3052 20.7667 20.4333 19.6386 20.4333 18.1667C20.4333 16.6948 19.3052 15.5667 17.8333 15.5667C16.3614 15.5667 15.2333 16.6948 15.2333 18.1667ZM16.2667 18.1667C16.2667 17.4578 16.5434 17.0738 16.8672 16.862C17.1982 16.6455 17.5924 16.6 17.8333 16.6C18.4281 16.6 18.8155 16.8348 19.0567 17.1428C19.3008 17.4546 19.4 17.8484 19.4 18.1667C19.4 18.5685 19.2994 18.9596 19.0586 19.2485C18.8205 19.5342 18.4343 19.7333 17.8333 19.7333C17.2324 19.7333 16.8462 19.5342 16.6081 19.2485C16.3673 18.9596 16.2667 18.5685 16.2667 18.1667Z" fill="currentColor" stroke="currentColor" stroke-width="0.2"/>
<path d="M22.0167 12.9167V12.9004L22.0115 12.885L20.346 7.88856C20.2497 7.51149 19.8767 7.23333 19.5 7.23333H16.2667V4.83333C16.2667 4.56061 16.1753 4.32557 16.0082 4.15846C15.8411 3.99134 15.6061 3.9 15.3333 3.9H2.83333C2.56061 3.9 2.32557 3.99134 2.15846 4.15846C1.99134 4.32557 1.9 4.56061 1.9 4.83333V18.1667C1.9 18.4394 1.99134 18.6744 2.15846 18.8415C2.32557 19.0087 2.56061 19.1 2.83333 19.1H3.66667C3.72777 19.1 3.78006 19.1013 3.82527 19.1026C3.83278 19.1028 3.84017 19.103 3.84741 19.1032C3.88299 19.1043 3.9152 19.1052 3.94271 19.1052C3.97523 19.1052 4.00817 19.104 4.03784 19.0981C4.06858 19.0919 4.10393 19.0792 4.13321 19.0499C4.16249 19.0206 4.17524 18.9852 4.18139 18.9545C4.18733 18.9248 4.18854 18.8919 4.18854 18.8594C4.18854 18.8319 4.18759 18.7997 4.18654 18.7641C4.18633 18.7569 4.18611 18.7495 4.1859 18.7419C4.1846 18.6967 4.18333 18.6444 4.18333 18.5833C4.18333 18.5222 4.1846 18.4699 4.1859 18.4247C4.18611 18.4172 4.18633 18.4098 4.18654 18.4026C4.18759 18.367 4.18854 18.3348 4.18854 18.3073C4.18854 18.2748 4.18733 18.2418 4.18139 18.2122C4.17524 18.1814 4.16249 18.1461 4.13321 18.1168C4.10393 18.0875 4.06858 18.0748 4.03784 18.0686C4.00817 18.0627 3.97523 18.0615 3.94271 18.0615C3.9152 18.0615 3.88299 18.0624 3.84741 18.0635C3.84017 18.0637 3.83278 18.0639 3.82527 18.0641C3.78006 18.0654 3.72777 18.0667 3.66667 18.0667H2.93333V11.0833V4.93333H15.2333V7.33333C15.2333 7.60606 15.3247 7.8411 15.4918 8.00821C15.6589 8.17532 15.8939 8.26667 16.1667 8.26667H19.4272L21.0667 13.3491V18.0667H20.3333C20.2722 18.0667 20.2173 18.0654 20.1673 18.0641L20.15 18.0636C20.1072 18.0625 20.0672 18.0615 20.0312 18.0615C19.954 18.0615 19.8746 18.0655 19.8094 18.0981C19.7337 18.1359 19.694 18.2022 19.6738 18.283C19.6549 18.3588 19.65 18.4585 19.65 18.5833C19.65 18.7082 19.6549 18.8079 19.6738 18.8836C19.694 18.9645 19.7337 19.0307 19.8094 19.0686C19.8746 19.1012 19.954 19.1052 20.0312 19.1052C20.0672 19.1052 20.1072 19.1042 20.15 19.103L20.1673 19.1026C20.2173 19.1013 20.2722 19.1 20.3333 19.1H21.1667C21.4394 19.1 21.6744 19.0087 21.8415 18.8415C22.0087 18.6744 22.1 18.4394 22.1 18.1667V13.1667C22.1 13.1007 22.0694 13.04 22.0509 13.0032C22.0498 13.001 22.0488 12.9989 22.0478 12.9969C22.024 12.9495 22.0167 12.9301 22.0167 12.9167Z" fill="currentColor" stroke="currentColor" stroke-width="0.2"/>
<path d="M8.52778 19.1H15.4722C15.6922 19.1 15.8853 19.0562 16.0271 18.9712C16.1712 18.8847 16.2667 18.7514 16.2667 18.5833C16.2667 18.4152 16.1712 18.2819 16.0271 18.1955C15.8853 18.1104 15.6922 18.0667 15.4722 18.0667H8.52778C8.3078 18.0667 8.11467 18.1104 7.97286 18.1955C7.82876 18.2819 7.73334 18.4152 7.73334 18.5833C7.73334 18.7514 7.82876 18.8847 7.97286 18.9712C8.11467 19.0562 8.3078 19.1 8.52778 19.1Z" fill="currentColor" stroke="currentColor" stroke-width="0.2"/>
<path d="M15.2333 18.1071C15.2333 18.3835 15.2761 18.6227 15.3573 18.7968C15.4377 18.9691 15.5687 19.1 15.75 19.1C15.9313 19.1 16.0623 18.9691 16.1427 18.7968C16.2239 18.6227 16.2667 18.3835 16.2667 18.1071V7.39286C16.2667 7.11646 16.2239 6.87731 16.1427 6.70325C16.0623 6.53093 15.9313 6.4 15.75 6.4C15.5687 6.4 15.4377 6.53093 15.3573 6.70325C15.2761 6.87731 15.2333 7.11646 15.2333 7.39286V18.1071Z" fill="currentColor" stroke="currentColor" stroke-width="0.2"/>
<path d="M16.0741 13.2667H21.2593C21.3741 13.2667 21.4646 13.2563 21.533 13.2302C21.6074 13.2018 21.6585 13.1535 21.6824 13.0851C21.703 13.0261 21.6991 12.962 21.6948 12.9121C21.6936 12.8975 21.6922 12.8835 21.6909 12.8697C21.687 12.83 21.6833 12.7922 21.6833 12.75C21.6833 12.7079 21.687 12.6701 21.6909 12.6304C21.6922 12.6165 21.6936 12.6025 21.6948 12.588C21.6991 12.5381 21.703 12.4739 21.6824 12.415C21.6585 12.3465 21.6074 12.2982 21.533 12.2699C21.4646 12.2437 21.3741 12.2333 21.2593 12.2333H16.0741C15.8411 12.2333 15.6374 12.2768 15.488 12.3608C15.337 12.4457 15.2333 12.5787 15.2333 12.75C15.2333 12.9214 15.337 13.0543 15.488 13.1393C15.6374 13.2233 15.8411 13.2667 16.0741 13.2667Z" fill="currentColor" stroke="currentColor" stroke-width="0.2"/>
</svg>
