<svg width="24" height="24" viewBox="0 0 24 24" fill="none" xmlns="http://www.w3.org/2000/svg">
<path d="M18.2915 9.65326L17.9915 18.7335C17.9659 19.5112 17.6383 20.2483 17.0782 20.7884C16.5181 21.3285 15.7696 21.629 14.9915 21.6263H9.2915C8.51392 21.629 7.76582 21.3289 7.20578 20.7894C6.64575 20.25 6.31782 19.5137 6.2915 18.7365L5.9915 9.65326C5.98494 9.45435 6.05766 9.26097 6.19367 9.11568C6.32968 8.97038 6.51784 8.88507 6.71675 8.87851C6.91566 8.87194 7.10904 8.94467 7.25433 9.08068C7.39962 9.21669 7.48494 9.40485 7.4915 9.60376L7.7915 18.6863C7.80644 19.074 7.97104 19.4408 8.25075 19.7098C8.53045 19.9787 8.90348 20.1288 9.2915 20.1285H14.9915C15.38 20.1288 15.7535 19.9783 16.0333 19.7087C16.313 19.4391 16.4773 19.0715 16.4915 18.6833L16.7915 9.60376C16.7981 9.40485 16.8834 9.21669 17.0287 9.08068C17.174 8.94467 17.3673 8.87194 17.5662 8.87851C17.7652 8.88507 17.9533 8.97038 18.0893 9.11568C18.2253 9.26097 18.2981 9.45435 18.2915 9.65326ZM19.2838 6.63151C19.2838 6.83042 19.2047 7.02119 19.0641 7.16184C18.9234 7.30249 18.7327 7.38151 18.5338 7.38151H5.75C5.55109 7.38151 5.36032 7.30249 5.21967 7.16184C5.07902 7.02119 5 6.83042 5 6.63151C5 6.43259 5.07902 6.24183 5.21967 6.10118C5.36032 5.96053 5.55109 5.88151 5.75 5.88151H8.075C8.31264 5.88215 8.54201 5.79435 8.71848 5.6352C8.89496 5.47606 9.00591 5.25695 9.02975 5.02051C9.0851 4.46587 9.34495 3.95171 9.75867 3.57819C10.1724 3.20467 10.7104 2.99856 11.2678 3.00001H13.0153C13.5726 2.99856 14.1106 3.20467 14.5243 3.57819C14.9381 3.95171 15.1979 4.46587 15.2533 5.02051C15.2771 5.25695 15.388 5.47606 15.5645 5.6352C15.741 5.79435 15.9704 5.88215 16.208 5.88151H18.533C18.7319 5.88151 18.9227 5.96053 19.0633 6.10118C19.204 6.24183 19.283 6.43259 19.283 6.63151H19.2838ZM10.3317 5.88151H13.9528C13.8542 5.65631 13.7897 5.4177 13.7615 5.17351C13.7429 4.98864 13.6564 4.81725 13.5186 4.69254C13.3809 4.56783 13.2018 4.49869 13.016 4.49851H11.2685C11.0827 4.49869 10.9036 4.56783 10.7659 4.69254C10.6281 4.81725 10.5416 4.98864 10.523 5.17351C10.4945 5.41773 10.4298 5.65636 10.331 5.88151H10.3317ZM11.087 17.2448V10.8585C11.087 10.6596 11.008 10.4688 10.8673 10.3282C10.7267 10.1875 10.5359 10.1085 10.337 10.1085C10.1381 10.1085 9.94732 10.1875 9.80667 10.3282C9.66602 10.4688 9.587 10.6596 9.587 10.8585V17.2478C9.587 17.4467 9.66602 17.6374 9.80667 17.7781C9.94732 17.9187 10.1381 17.9978 10.337 17.9978C10.5359 17.9978 10.7267 17.9187 10.8673 17.7781C11.008 17.6374 11.087 17.4467 11.087 17.2478V17.2448ZM14.6975 17.2448V10.8585C14.6975 10.6596 14.6185 10.4688 14.4778 10.3282C14.3372 10.1875 14.1464 10.1085 13.9475 10.1085C13.7486 10.1085 13.5578 10.1875 13.4172 10.3282C13.2765 10.4688 13.1975 10.6596 13.1975 10.8585V17.2478C13.1975 17.4467 13.2765 17.6374 13.4172 17.7781C13.5578 17.9187 13.7486 17.9978 13.9475 17.9978C14.1464 17.9978 14.3372 17.9187 14.4778 17.7781C14.6185 17.6374 14.6975 17.4467 14.6975 17.2478V17.2448Z" fill="currentColor"/>
</svg>