<svg width="24" height="24" viewBox="0 0 24 24" fill="none" xmlns="http://www.w3.org/2000/svg">
<path d="M11.6155 11.9007C10.6364 11.9008 9.67923 11.6106 8.86506 11.0667C8.05089 10.5229 7.41629 9.74977 7.04151 8.84522C6.66673 7.94068 6.5686 6.94531 6.75953 5.98499C6.95046 5.02468 7.42189 4.14255 8.11418 3.45016C8.80647 2.75778 9.68853 2.28624 10.6488 2.09517C11.6091 1.90411 12.6045 2.0021 13.5091 2.37676C14.4137 2.75142 15.1869 3.38592 15.7308 4.20001C16.2748 5.0141 16.5652 5.97123 16.5652 6.95034C16.5639 8.26275 16.0421 9.52106 15.1141 10.4491C14.1862 11.3772 12.9279 11.8993 11.6155 11.9007ZM11.6155 3.4276C10.9186 3.42746 10.2373 3.63401 9.65775 4.02112C9.07822 4.40823 8.62651 4.9585 8.35975 5.60235C8.09298 6.2462 8.02315 6.9547 8.15908 7.63824C8.29501 8.32178 8.6306 8.94965 9.1234 9.44245C9.6162 9.93525 10.2441 10.2708 10.9276 10.4068C11.6112 10.5427 12.3197 10.4729 12.9635 10.2061C13.6073 9.93934 14.1576 9.48763 14.5447 8.9081C14.9318 8.32858 15.1384 7.64727 15.1383 6.95034C15.1372 6.01638 14.7657 5.12098 14.1053 4.46057C13.4449 3.80016 12.5495 3.42867 11.6155 3.4276ZM19.5176 22.5027H3.71346L3 21.7892C3 20.6578 3.22285 19.5375 3.65582 18.4922C4.08879 17.4469 4.7234 16.4972 5.52342 15.6971C6.32345 14.8971 7.27321 14.2625 8.3185 13.8295C9.36378 13.3966 10.4841 13.1737 11.6155 13.1737C12.7469 13.1737 13.8672 13.3966 14.9125 13.8295C15.9578 14.2625 16.9076 14.8971 17.7076 15.6971C18.5076 16.4972 19.1422 17.4469 19.5752 18.4922C20.0082 19.5375 20.231 20.6578 20.231 21.7892L19.5176 22.5027ZM4.46067 21.0758H18.7703C18.5959 19.2992 17.7667 17.6512 16.4443 16.4522C15.1218 15.2533 13.4006 14.5892 11.6155 14.5892C9.83045 14.5892 8.10923 15.2533 6.78676 16.4522C5.46428 17.6512 4.63514 19.2992 4.46067 21.0758Z" fill="#231F20"/>
</svg>
