<svg width="24" height="24" viewBox="0 0 24 24" fill="none" xmlns="http://www.w3.org/2000/svg">
<path d="M9.36942 8.56522L11.2019 6.72473V14.3988C11.2019 14.611 11.2862 14.8145 11.4363 14.9646C11.5864 15.1147 11.7899 15.199 12.0021 15.199C12.2143 15.199 12.4179 15.1147 12.568 14.9646C12.718 14.8145 12.8023 14.611 12.8023 14.3988V6.72473L14.6348 8.56522C14.7092 8.64022 14.7977 8.69975 14.8952 8.74038C14.9927 8.78101 15.0973 8.80192 15.203 8.80192C15.3086 8.80192 15.4132 8.78101 15.5107 8.74038C15.6082 8.69975 15.6967 8.64022 15.7711 8.56522C15.8461 8.49083 15.9057 8.40233 15.9463 8.30481C15.9869 8.2073 16.0078 8.10271 16.0078 7.99707C16.0078 7.89143 15.9869 7.78684 15.9463 7.68933C15.9057 7.59181 15.8461 7.50331 15.7711 7.42892L12.5703 4.22807C12.4942 4.15522 12.4044 4.09811 12.3062 4.06003C12.1114 3.97999 11.8929 3.97999 11.698 4.06003C11.5998 4.09811 11.5101 4.15522 11.434 4.22807L8.23312 7.42892C8.15851 7.50353 8.09933 7.59211 8.05895 7.68959C8.01857 7.78707 7.99779 7.89155 7.99779 7.99707C7.99779 8.10258 8.01857 8.20707 8.05895 8.30455C8.09933 8.40203 8.15851 8.49061 8.23312 8.56522C8.30773 8.63983 8.39631 8.69902 8.49379 8.73939C8.59127 8.77977 8.69576 8.80056 8.80127 8.80056C8.90679 8.80056 9.01127 8.77977 9.10875 8.73939C9.20624 8.69902 9.29481 8.63983 9.36942 8.56522ZM19.204 11.9981C18.9918 11.9981 18.7883 12.0824 18.6382 12.2325C18.4881 12.3826 18.4038 12.5861 18.4038 12.7983V17.5996C18.4038 17.8118 18.3195 18.0154 18.1694 18.1655C18.0194 18.3155 17.8158 18.3998 17.6036 18.3998H6.40064C6.18841 18.3998 5.98487 18.3155 5.8348 18.1655C5.68473 18.0154 5.60042 17.8118 5.60042 17.5996V12.7983C5.60042 12.5861 5.51612 12.3826 5.36605 12.2325C5.21598 12.0824 5.01244 11.9981 4.80021 11.9981C4.58798 11.9981 4.38445 12.0824 4.23438 12.2325C4.08431 12.3826 4 12.5861 4 12.7983V17.5996C4 18.2363 4.25292 18.8469 4.70313 19.2971C5.15334 19.7473 5.76395 20.0002 6.40064 20.0002H17.6036C18.2403 20.0002 18.8509 19.7473 19.3011 19.2971C19.7513 18.8469 20.0042 18.2363 20.0042 17.5996V12.7983C20.0042 12.5861 19.9199 12.3826 19.7699 12.2325C19.6198 12.0824 19.4163 11.9981 19.204 11.9981Z" fill="currentColor"/>
</svg>
