<svg viewBox="0 0 24 24" fill="none" xmlns="http://www.w3.org/2000/svg">
<path d="M11.9784 2.95L11.9782 2.95C6.9877 2.96305 2.95 7.00944 2.95 12C2.95 16.9906 6.9877 21.0369 11.9782 21.05H11.9784H12C16.9992 21.05 21.05 16.9992 21.05 12C21.05 7.00075 16.9992 2.95 12 2.95H11.9913L11.9784 2.95ZM16.3717 11.5952C16.3432 10.255 16.1745 8.98938 15.8937 7.8628C16.7669 7.59493 17.5992 7.24179 18.3828 6.81521C19.454 8.13081 20.1291 9.7853 20.2164 11.5952H16.3717ZM12.4091 11.5952V8.43559C13.3346 8.40719 14.2317 8.28585 15.1006 8.07938C15.3575 9.11098 15.5203 10.2975 15.549 11.5952H12.4091ZM12.4091 7.61284V3.84606C12.8584 3.99165 13.3157 4.36478 13.7381 4.93836C14.1721 5.52774 14.5661 6.32464 14.8741 7.29069C14.079 7.4774 13.2561 7.58481 12.4091 7.61284ZM10.251 4.9206C10.6769 4.34486 11.1376 3.97376 11.5909 3.83611V7.61718C10.7354 7.58901 9.90398 7.47753 9.10433 7.28658C9.41656 6.31392 9.8138 5.51163 10.251 4.9206ZM8.87781 8.075C9.75117 8.28164 10.6607 8.40706 11.5909 8.4356V11.5909H8.42941C8.4581 10.2931 8.62087 9.10662 8.87781 8.075ZM7.60259 11.5909H3.78356C3.87093 9.78524 4.546 8.13085 5.61717 6.81528C6.39626 7.2417 7.22406 7.5947 8.08879 7.85851C7.80415 8.98401 7.63549 10.2482 7.60259 11.5909ZM3.77936 12.4091H7.60244C7.63123 13.7478 7.79986 15.0161 8.08451 16.1417C7.21996 16.4094 6.39608 16.7584 5.61291 17.1848C4.54184 15.8693 3.87083 14.2149 3.77936 12.4091ZM8.87776 15.9248C8.62085 14.8932 8.4581 13.7068 8.42941 12.4091H11.5909V15.5601C10.6608 15.5886 9.7512 15.7141 8.87776 15.9248ZM11.5909 16.3828V20.1679C11.1375 20.0284 10.6768 19.6572 10.251 19.0821C9.81375 18.4915 9.41649 17.6902 9.10425 16.7175C9.90385 16.5226 10.7352 16.411 11.5909 16.3828ZM12.4091 20.154V16.3785C13.256 16.4067 14.0791 16.5181 14.8783 16.705C14.5683 17.6732 14.1743 18.4712 13.7403 19.0611C13.3178 19.6353 12.8604 20.0085 12.4091 20.154ZM15.1006 15.9206C14.2319 15.714 13.3347 15.5886 12.4091 15.5601V12.4091H15.549C15.5203 13.7027 15.3575 14.8891 15.1006 15.9206ZM15.8896 16.1329C16.1742 15.0076 16.3428 13.7476 16.3716 12.4091H20.2164C20.1291 14.2147 19.454 15.8649 18.3828 17.1847C17.5951 16.754 16.7627 16.4008 15.8896 16.1329ZM14.0805 4.03698C15.5147 4.41274 16.7976 5.16793 17.8187 6.18492C17.1356 6.54268 16.4212 6.84139 15.6719 7.06999C15.2749 5.80671 14.7263 4.7607 14.0805 4.03698ZM6.18511 6.18502C7.19346 5.17271 8.46727 4.42177 9.89252 4.04612C9.24762 4.76618 8.70344 5.81115 8.31078 7.0655C7.56964 6.83706 6.85985 6.54233 6.18511 6.18502ZM8.30657 16.9302C8.70336 18.1891 9.24807 19.2308 9.89327 19.9541C8.46764 19.5785 7.19334 18.8272 6.18079 17.8107C6.85564 17.4534 7.56919 17.1587 8.30657 16.9302ZM15.6761 16.9257C16.4255 17.1543 17.1399 17.453 17.8232 17.8108C16.8022 18.8316 15.5156 19.5869 14.0813 19.9628C14.7304 19.2389 15.2754 18.1926 15.6761 16.9257Z" fill="currentColor" stroke="currentColor" stroke-width="0.1"/>
</svg>
