<svg width="24" height="24" viewBox="0 0 24 24" fill="none" xmlns="http://www.w3.org/2000/svg">
<path d="M11.9927 1.17793C10.0898 1.17812 8.22279 1.69615 6.59148 2.67656C4.96017 3.65697 3.62599 5.06286 2.73177 6.74373C1.83755 8.4246 1.41695 10.3172 1.51499 12.2189C1.61302 14.1206 2.22601 15.9598 3.28833 17.5397L1.5 22.1779L6.27191 20.4705C7.64047 21.3645 9.19878 21.9261 10.8226 22.1108C12.4465 22.2954 14.091 22.0979 15.6251 21.534C17.1592 20.9701 18.5404 20.0555 19.6588 18.8629C20.7771 17.6703 21.6016 16.2328 22.0665 14.6649C22.5314 13.097 22.6239 11.4422 22.3366 9.83219C22.0493 8.22221 21.3902 6.70165 20.4118 5.3917C19.4333 4.08174 18.1626 3.01861 16.701 2.28703C15.2393 1.55545 13.627 1.17566 11.9927 1.17793Z" stroke="currentColor" stroke-width="1.1375" stroke-linecap="round" stroke-linejoin="round"/>
<path d="M9.71178 13.9606C10.8979 15.1475 13.5165 16.6997 14.73 16.6997C15.2624 16.7052 15.7802 16.5264 16.1959 16.1936C16.6116 15.8608 16.8996 15.3945 17.0111 14.8736V13.9606C17.0111 13.9606 15.8888 13.4127 15.1863 13.0475C14.4837 12.6823 13.3614 13.9606 13.3614 13.9606C12.5075 13.6822 11.7277 13.214 11.0804 12.591C10.4579 11.9433 9.98997 11.1629 9.71178 10.3084C9.71178 10.3084 10.9892 9.18535 10.6242 8.48231C10.2592 7.77926 9.71178 6.65622 9.71178 6.65622H8.79937C8.27883 6.76779 7.81282 7.05596 7.48027 7.47194C7.14772 7.88793 6.96906 8.40614 6.97455 8.93883C6.97455 10.1532 8.52565 12.7736 9.71178 13.9606Z" fill="currentColor"/>
</svg>
